<svg width="24" height="24" viewBox="0 0 24 24" fill="none" xmlns="http://www.w3.org/2000/svg">
<path d="M12 10C14.2091 10 16 8.20914 16 6C16 3.79086 14.2091 2 12 2C9.79086 2 8 3.79086 8 6C8 8.20914 9.79086 10 12 10Z" stroke="#4169E1"/>
<path d="M17 22C19.2091 22 21 20.2091 21 18C21 15.7909 19.2091 14 17 14C14.7909 14 13 15.7909 13 18C13 20.2091 14.7909 22 17 22Z" stroke="#4169E1"/>
<path d="M17 16.667V19.333M15.666 18H18.333" stroke="#4169E1" stroke-linecap="round" stroke-linejoin="round"/>
<path d="M14 20.834C13.366 20.942 12.695 21 12 21C8.134 21 5 19.21 5 17C5 14.79 8.134 13 12 13C13.713 13 15.283 13.352 16.5 13.936" stroke="#4169E1"/>
</svg>
