<svg width="22" height="22" viewBox="0 0 22 22" fill="none" xmlns="http://www.w3.org/2000/svg">
<path d="M8 16.0004C8.85 15.3704 9.885 15.0004 11 15.0004C12.115 15.0004 13.15 15.3704 14 16.0004" stroke="#4169E1" stroke-width="1.5" stroke-linecap="round"/>
<path d="M14 11.0004C14.5523 11.0004 15 10.3288 15 9.50037C15 8.67194 14.5523 8.00037 14 8.00037C13.4477 8.00037 13 8.67194 13 9.50037C13 10.3288 13.4477 11.0004 14 11.0004Z" fill="#4169E1"/>
<path d="M8 11.0004C8.55228 11.0004 9 10.3288 9 9.50037C9 8.67194 8.55228 8.00037 8 8.00037C7.44772 8.00037 7 8.67194 7 9.50037C7 10.3288 7.44772 11.0004 8 11.0004Z" fill="#4169E1"/>
<path d="M1 11.0004C1 6.28637 1 3.92937 2.464 2.46437C3.93 1.00037 6.286 1.00037 11 1.00037C15.714 1.00037 18.071 1.00037 19.535 2.46437C21 3.93037 21 6.28637 21 11.0004C21 15.7144 21 18.0714 19.535 19.5354C18.072 21.0004 15.714 21.0004 11 21.0004C6.286 21.0004 3.929 21.0004 2.464 19.5354C1 18.0724 1 15.7144 1 11.0004Z" stroke="#4169E1" stroke-width="1.5"/>
</svg>
