<svg width="29" height="29" viewBox="0 0 29 29" fill="none" xmlns="http://www.w3.org/2000/svg">
<path d="M14.5033 22.6567C19.1058 22.6567 22.8366 18.9259 22.8366 14.3234C22.8366 9.72085 19.1058 5.99002 14.5033 5.99002C9.90076 5.99002 6.16992 9.72085 6.16992 14.3234C6.16992 15.6567 6.48326 16.9167 7.03909 18.0342C7.18742 18.3309 7.23659 18.67 7.15076 18.9909L6.65492 20.8459C6.606 21.0294 6.60618 21.2225 6.65546 21.406C6.70473 21.5894 6.80136 21.7566 6.93566 21.8909C7.06997 22.0252 7.23722 22.1219 7.42064 22.1712C7.60407 22.2204 7.79723 22.2206 7.98076 22.1717L9.83576 21.6759C10.1578 21.5948 10.4983 21.6342 10.7933 21.7867C11.9457 22.3605 13.2158 22.6584 14.5033 22.6567Z" stroke="#4169E1" stroke-width="1.25"/>
</svg>
