<svg width="204" height="160" viewBox="0 0 204 160" fill="none" xmlns="http://www.w3.org/2000/svg">
<path d="M26.2923 95.4929C26.2923 95.4929 6.42754 64.8724 22.4258 38.3241C22.4258 38.3241 31.0147 20.9555 60.4719 29.7933C60.4719 29.7933 72.5428 35.1821 86.4003 36.7144C92.4743 37.3887 98.6225 36.7338 104.418 34.7954C110.213 32.857 115.517 29.6814 119.961 25.4892C126.179 19.606 140.013 10.5433 161.991 17.6004C161.991 17.6004 190.32 27.9587 187.626 68.6165C187.626 68.6165 186.484 112.943 140.285 129.337L60.146 126.755L26.2923 95.4929Z" fill="#4169E1"/>
<path opacity="0.7" d="M26.2923 95.4929C26.2923 95.4929 6.42754 64.8724 22.4258 38.3241C22.4258 38.3241 31.0147 20.9555 60.4719 29.7933C60.4719 29.7933 72.5428 35.1821 86.4003 36.7144C92.4743 37.3887 98.6225 36.7338 104.418 34.7954C110.213 32.857 115.517 29.6814 119.961 25.4892C126.179 19.606 140.013 10.5433 161.991 17.6004C161.991 17.6004 190.32 27.9587 187.626 68.6165C187.626 68.6165 186.484 112.943 140.285 129.337L60.146 126.755L26.2923 95.4929Z" fill="white"/>
<path d="M62.0195 19.9715C62.0195 19.9715 62.4885 13.1768 77.237 15.3839C78.1367 15.5173 79.0283 15.7004 79.9077 15.9322C82.5033 16.614 90.2129 18.2236 98.8487 16.0751C101.347 15.4388 103.755 14.4886 106.014 13.2471C109.334 11.4524 116.76 8.09257 119.009 12.4411C119.009 12.4411 124.078 18.8609 110.333 24.8894C110.333 24.8894 100.429 36.0116 75.3612 30.9203C75.3635 30.9273 60.6384 27.0661 62.0195 19.9715Z" fill="#4169E1"/>
<path opacity="0.7" d="M62.0195 19.9715C62.0195 19.9715 62.4885 13.1768 77.237 15.3839C78.1367 15.5173 79.0283 15.7004 79.9077 15.9322C82.5033 16.614 90.2129 18.2236 98.8487 16.0751C101.347 15.4388 103.755 14.4886 106.014 13.2471C109.334 11.4524 116.76 8.09257 119.009 12.4411C119.009 12.4411 124.078 18.8609 110.333 24.8894C110.333 24.8894 100.429 36.0116 75.3612 30.9203C75.3635 30.9273 60.6384 27.0661 62.0195 19.9715Z" fill="white"/>
<path opacity="0.45" d="M161.991 90.3524C170.536 90.3524 177.464 83.4301 177.464 74.891C177.464 66.352 170.536 59.4297 161.991 59.4297C153.445 59.4297 146.518 66.352 146.518 74.891C146.518 83.4301 153.445 90.3524 161.991 90.3524Z" fill="white"/>
<path d="M161.991 90.4953C158.902 90.4953 155.883 89.5801 153.315 87.8655C150.747 86.1509 148.745 83.7138 147.563 80.8625C146.381 78.0112 146.072 74.8737 146.675 71.8468C147.277 68.8198 148.765 66.0394 150.948 63.8571C153.132 61.6748 155.915 60.1887 158.944 59.5866C161.973 58.9845 165.113 59.2935 167.967 60.4746C170.82 61.6556 173.259 63.6556 174.975 66.2217C176.691 68.7879 177.607 71.8048 177.607 74.891C177.603 79.0284 175.957 82.9952 173.029 85.9208C170.101 88.8464 166.131 90.4916 161.991 90.4953ZM161.991 59.5679C158.959 59.5679 155.995 60.4663 153.474 62.1495C150.953 63.8327 148.988 66.2252 147.828 69.0242C146.667 71.8233 146.364 74.9033 146.955 77.8748C147.547 80.8463 149.007 83.5758 151.151 85.7181C153.295 87.8604 156.026 89.3194 159 89.9104C161.974 90.5015 165.056 90.1981 167.857 89.0387C170.658 87.8793 173.053 85.9159 174.737 83.3968C176.422 80.8777 177.321 77.916 177.321 74.8863C177.315 70.8258 175.698 66.9332 172.824 64.0624C169.95 61.1916 166.054 59.5769 161.991 59.5726V59.5679Z" fill="#4169E1"/>
<path d="M160.476 55.0999C160.476 55.0999 158.302 59.4953 156.661 61.7305C156.515 61.9222 156.394 62.1316 156.3 62.3537C156.086 62.8172 155.999 63.3288 156.047 63.8368C156.09 64.0589 156.215 64.257 156.395 64.3933C156.576 64.5295 156.801 64.5941 157.027 64.5749C157.791 64.521 159.28 64.1063 160.964 62.0749C160.964 62.0749 162.535 60.1748 162.898 58.4972C162.893 58.4972 161.064 57.5975 160.476 55.0999Z" fill="#4169E1"/>
<path opacity="0.2" d="M159.644 56.7165C159.644 56.7165 161.754 58.5909 160.959 60.7652C160.959 60.7652 159.965 62.745 158.943 63.8978C158.943 63.8978 161.672 62.3116 162.893 58.4972C161.671 57.7275 160.802 56.5065 160.476 55.0999L159.644 56.7165Z" fill="black"/>
<path d="M108.089 19.9973C115.206 20.0137 128.784 19.9973 135.802 19.9715C136.357 19.9741 136.905 20.0957 137.409 20.3282C137.913 20.5606 138.362 20.8985 138.724 21.319C139.086 21.7395 139.354 22.2327 139.508 22.7654C139.663 23.2981 139.702 23.8579 139.622 24.4068L132.011 78.6984C131.851 79.8938 131.255 80.9882 130.337 81.7713C129.419 82.5545 128.244 82.9712 127.037 82.9415L98.232 82.1098C97.8188 82.0952 97.4132 81.9939 97.0417 81.8124C96.6702 81.631 96.3411 81.3734 96.0757 81.0565C95.8103 80.7397 95.6146 80.3705 95.5014 79.9731C95.3881 79.5757 95.3598 79.159 95.4183 78.7499L102.9 24.5567C103.066 23.2977 103.684 22.1417 104.638 21.3031C105.592 20.4646 106.819 20.0006 108.089 19.9973Z" fill="#2F3B42"/>
<path d="M106.127 21.5858C113.241 21.5999 126.822 21.5858 133.837 21.56C134.39 21.5569 134.937 21.6728 135.441 21.9C135.945 22.1272 136.394 22.4602 136.758 22.8765C137.122 23.2927 137.391 23.7824 137.548 24.3121C137.705 24.8418 137.746 25.3991 137.669 25.9461L130.048 79.6613C129.879 80.8491 129.279 81.9331 128.361 82.7067C127.443 83.4802 126.273 83.8891 125.073 83.8553L96.2671 83.0329C95.8561 83.0214 95.452 82.9233 95.0815 82.7451C94.7109 82.567 94.3821 82.3127 94.1166 81.999C93.8511 81.6852 93.6547 81.319 93.5405 80.9243C93.4262 80.5295 93.3965 80.1152 93.4534 79.7082L100.933 26.089C101.107 24.8376 101.73 23.6918 102.685 22.8637C103.639 22.0357 104.862 21.5817 106.127 21.5858Z" fill="#2F3B42"/>
<path opacity="0.2" d="M106.127 21.5858C113.241 21.5999 126.822 21.5858 133.837 21.56C134.39 21.5569 134.937 21.6728 135.441 21.9C135.945 22.1272 136.394 22.4602 136.758 22.8765C137.122 23.2927 137.391 23.7824 137.548 24.3121C137.705 24.8418 137.746 25.3991 137.669 25.9461L130.048 79.6613C129.879 80.8491 129.279 81.9331 128.361 82.7067C127.443 83.4802 126.273 83.8891 125.073 83.8553L96.2671 83.0329C95.8561 83.0214 95.452 82.9233 95.0815 82.7451C94.7109 82.567 94.3821 82.3127 94.1166 81.999C93.8511 81.6852 93.6547 81.319 93.5405 80.9243C93.4262 80.5295 93.3965 80.1152 93.4534 79.7082L100.933 26.089C101.107 24.8376 101.73 23.6918 102.685 22.8637C103.639 22.0357 104.862 21.5817 106.127 21.5858Z" fill="black"/>
<path d="M136.419 27.5557L129.15 78.3704C128.824 80.8281 126.833 82.6346 124.519 82.5643L97.2167 82.3581C96.8209 82.3356 96.4356 82.2222 96.0907 82.0268C95.7459 81.8313 95.4508 81.5591 95.2283 81.2311C94.7186 80.5308 94.4932 79.6635 94.5976 78.8038L101.714 28.4297C102.267 23.8702 105.763 22.7503 108.195 22.755C114.821 22.7714 126.322 23.1837 132.852 23.165C135.047 23.165 136.731 25.2385 136.419 27.5557Z" fill="white"/>
<path opacity="0.18" d="M108.204 22.7573C108.204 22.7573 103.177 23.7812 102.9 28.35L96.0044 80.957L95.2283 81.2312C94.7186 80.5308 94.4932 79.6635 94.5976 78.8038L101.714 28.4297C102.277 23.8726 105.78 22.7526 108.204 22.7573Z" fill="#4169E1"/>
<path opacity="0.3" d="M104.373 24.8894H135.856C135.856 24.8894 134.796 23.1743 132.862 23.1673L108.204 22.7573C108.204 22.7573 105.372 23.4297 104.373 24.8894Z" fill="#4169E1"/>
<path d="M108.359 51.5971L110 41.4707C110.424 39.9104 111.217 38.4746 112.312 37.2841C113.406 36.0935 114.771 35.1831 116.291 34.6292C118.779 33.692 121.614 34.0833 123.614 35.8335C124.786 36.8527 125.764 38.385 125.865 40.6647L124.21 51.9251C124.21 51.9251 123.506 58.1106 116.73 59.9334C114.34 60.5754 111.754 59.9873 110.04 58.2043C108.781 56.8946 107.824 54.8257 108.359 51.5971Z" fill="#4169E1"/>
<path opacity="0.2" d="M108.359 51.5971L110 41.4707C110.424 39.9104 111.217 38.4746 112.312 37.2841C113.406 36.0935 114.771 35.1831 116.291 34.6292C118.779 33.692 121.614 34.0833 123.614 35.8335C124.786 36.8527 125.764 38.385 125.865 40.6647L124.21 51.9251C124.21 51.9251 123.506 58.1106 116.73 59.9334C114.34 60.5754 111.754 59.9873 110.04 58.2043C108.781 56.8946 107.824 54.8257 108.359 51.5971Z" fill="black"/>
<path d="M121.039 64.4015H106.448C105.066 64.4015 103.946 65.5208 103.946 66.9015V67.9909C103.946 69.3716 105.066 70.4909 106.448 70.4909H121.039C122.421 70.4909 123.541 69.3716 123.541 67.9909V66.9015C123.541 65.5208 122.421 64.4015 121.039 64.4015Z" fill="#4169E1"/>
<path d="M99.9952 143.334V144.717L106.066 147.01V146.024L99.9952 143.334Z" fill="#2F3B42"/>
<path d="M107.053 146.422V147.566L112.329 149.304C112.329 149.304 120.12 151.258 120.261 146.422H107.053Z" fill="#2F3B42"/>
<path d="M81.3543 73.0612L80.0202 68.7852C73.0492 49.8211 80.7447 51.0465 80.7447 51.0465C87.6008 50.5545 90.6607 72.7004 90.6607 72.7004C94.1098 87.4893 107.799 91.2896 112.404 92.1612C113.784 92.4226 115.143 92.7868 116.469 93.2507C131.476 98.5107 136.203 105.003 136.203 105.003C146.611 117.229 140.285 129.333 140.285 129.333C130.653 131.945 94.5788 137.978 94.5788 137.978C75.1524 139.618 60.7861 130.312 60.7861 130.312C55.7261 126.235 42.6236 121.91 42.6236 121.91C39.4019 121.015 38.6656 120.118 38.6656 120.118L34.3395 116.369C33.5259 115.816 32.717 115.23 31.9174 114.619L18.8665 99.5158C20.3694 97.6859 23.9546 95.0477 32.1917 94.7689C35.0276 94.6435 37.8473 95.2588 40.3726 96.5543C41.13 96.9526 43.1863 98.745 42.6236 98.0069C39.4816 93.9161 35.2376 84.0709 35.2376 84.0709C32.9514 79.0967 31.2374 66.9436 31.2374 66.9436L29.5257 57.7568L29.6242 44.2659C43.0738 42.7359 44.0539 60.0131 44.0539 60.0131C45.2778 66.372 47.972 73.5532 47.972 73.5532C50.5869 77.2477 53.4494 80.7608 56.5397 84.0685C53.5877 77.4496 50.2089 69.7763 49.0037 67.0186C48.6625 66.2426 48.3727 65.4451 48.1361 64.6311C45.5569 55.7278 45.8101 46.6839 45.8429 45.6717L47.4632 32.2066C48.0408 32.1316 48.627 32.157 49.1959 32.2815C58.9079 33.2586 58.9079 47.9397 58.9079 47.9397L68.3761 38.8021C68.5461 38.7518 68.7192 38.7127 68.8943 38.6849C71.5556 38.2538 73.218 40.7936 74.1887 43.2631C74.9282 45.1596 75.3252 47.1722 75.3611 49.2073C75.6659 63.6424 81.1714 72.7683 81.3473 73.0518" fill="#F9B499"/>
<path d="M84.1564 110.928C84.1564 110.928 111.428 100.605 124.929 126.755C124.929 126.755 117.766 97.8523 84.1564 110.928Z" fill="#F7A48B"/>
<path d="M31.9197 114.621C25.7014 109.886 20.0881 103.794 18.3764 101.875C18.2013 101.679 18.0931 101.433 18.0673 101.171C18.0416 100.909 18.0998 100.647 18.2334 100.42C18.4198 100.102 18.6315 99.7998 18.8665 99.5158C18.8665 99.5158 35.2915 107.899 31.9197 114.621Z" fill="#4169E1"/>
<path d="M29.5493 57.7708L27.7532 48.1154C26.8551 44.2823 29.629 44.2823 29.629 44.2823H29.6477L31.4274 53.0942C31.9198 56.7634 29.5493 57.7708 29.5493 57.7708Z" fill="#4169E1"/>
<path d="M45.843 45.6717V45.578L44.9426 34.5659C45.285 32.9001 46.4362 32.3518 47.4562 32.2089L48.3707 43.2209C48.3707 43.2209 48.5114 45.4983 45.843 45.6717Z" fill="#4169E1"/>
<path d="M34.771 82.9415C34.771 82.9415 46.6589 100.947 59.9678 105.851L75.7668 112.229L65.2787 109.677C65.2787 109.677 56.4718 107.967 42.6236 98.0069C42.6236 98.0069 37.6035 90.3922 34.771 82.9415Z" fill="#F7A48B"/>
<path d="M58.9221 46.1309V41.0209L64.0431 43.1905L64.5402 46.8596C64.5402 46.8596 61.0113 47.6445 58.9221 46.1309Z" fill="#F4BBA8"/>
<path d="M58.9221 41.0209V44.048C58.9221 44.048 63.0419 46.3418 64.5495 46.8596L64.0431 43.1905L58.9221 41.0209Z" fill="#F7A48B"/>
<path d="M76.6203 78.2813C76.6203 78.2813 69.9518 82.5666 57.276 82.3581C57.276 82.3581 54.9453 81.5357 54.4318 78.6375C54.3812 78.358 54.3499 78.0754 54.338 77.7916L49.686 61.3181C49.0732 59.8562 48.634 58.3275 48.3776 56.7634C48.1549 55.3576 48.1009 53.7948 48.4691 52.3843C48.7006 51.5189 49.157 50.73 49.7919 50.0976C50.4269 49.4652 51.2179 49.0117 52.0847 48.7832L58.5281 47.0587C58.5281 47.0587 58.0873 45.2289 59.7732 46.1215C59.7732 46.1215 62.2047 47.0587 63.6514 46.8525C63.6514 46.8525 64.7159 46.4964 64.8238 47.1899V47.6773C64.8238 47.6773 71.1781 47.4242 73.8722 48.4715C74.0976 48.5584 74.3021 48.6917 74.4725 48.8628C74.8259 49.2089 75.0282 49.6805 75.0352 50.1749C75.068 52.2836 75.1876 58.3542 75.5299 63.9985C75.6495 65.9924 75.7972 67.9324 75.9801 69.6217C76.0702 70.4277 76.2175 71.2263 76.421 72.0115C76.4333 72.0492 76.4435 72.0875 76.4514 72.1263C76.7151 73.0948 77.0402 74.0457 77.4245 74.973C77.7973 75.8868 77.9028 77.1309 76.6203 78.2813Z" fill="#4169E1"/>
<path opacity="0.2" d="M58.5376 47.0587L57.0088 47.4664C57.0088 47.4664 59.0464 49.2096 63.7312 48.2513C63.7336 48.2513 59.4215 48.167 58.5376 47.0587Z" fill="black"/>
<path opacity="0.2" d="M76.4703 72.1404C76.2475 72.3184 66.7067 79.8183 60.3501 80.4416C59.2857 80.5405 58.214 80.357 57.2433 79.9097L54.4295 78.6375C54.379 78.358 54.3477 78.0754 54.3358 77.7916L49.6837 61.3181C49.0709 59.8562 48.6318 58.3275 48.3754 56.7634C48.3754 56.7634 63.4545 67.5411 75.7645 67.3068C75.7645 67.3068 75.9099 70.2754 76.4234 72.0349L76.4703 72.1404Z" fill="black"/>
<path d="M102.277 47.0587C102.277 47.0587 98.3656 70.8424 93.24 71.3648C93.24 71.3648 90.5505 71.4515 87.4226 69.7248L75.5323 64.0032C75.4667 62.9442 75.4128 61.8687 75.3612 60.8097C75.1455 56.2128 75.0634 51.8806 75.0376 50.1726C75.0306 49.6782 74.8283 49.2066 74.4749 48.8605L74.5335 48.8019C74.5335 48.8019 76.8196 48.7058 79.6005 52.6139C79.6005 52.6139 86.6348 59.9053 90.6326 61.6438C90.6326 61.6438 96.7149 48.7058 97.0619 45.2429C97.0619 45.2429 99.4817 45.4632 101.032 46.0911C101.665 46.3371 102.15 46.6581 102.277 47.0587Z" fill="#4169E1"/>
<path opacity="0.3" d="M102.277 47.0587C102.277 47.0587 98.3656 70.8424 93.24 71.3648C93.24 71.3648 90.5505 71.4515 87.4226 69.7248L75.5323 64.0032C75.4667 62.9442 75.4128 61.8687 75.3612 60.8097C75.1455 56.2128 75.0634 51.8806 75.0376 50.1726C75.0306 49.6782 74.8283 49.2066 74.4749 48.8605L74.5335 48.8019C74.5335 48.8019 76.8196 48.7058 79.6005 52.6139C79.6005 52.6139 86.6348 59.9053 90.6326 61.6438C90.6326 61.6438 96.7149 48.7058 97.0619 45.2429C97.0619 45.2429 99.4817 45.4632 101.032 46.0911C101.665 46.3371 102.15 46.6581 102.277 47.0587Z" fill="white"/>
<path opacity="0.3" d="M102.277 47.0587C102.277 47.0587 98.3657 70.8424 93.24 71.3648C93.24 71.3648 90.5506 71.4515 87.4227 69.7248L75.5324 64.0032L75.3612 60.8097L84.9865 67.0912C88.1988 68.8953 90.8085 66.5594 90.8085 66.5594C92.4498 64.2726 92.893 66.9389 92.893 66.9389C95.8474 69.1929 101.032 46.0864 101.032 46.0864C101.665 46.3371 102.15 46.6581 102.277 47.0587Z" fill="white"/>
<path opacity="0.2" d="M75.5324 64.0032L76.4586 64.4484L75.9896 55.8473C75.9896 55.8473 76.0342 53.3075 75.0775 52.0071L75.5324 64.0032Z" fill="black"/>
<path d="M102.277 47.0587C102.277 47.0587 104.741 38.713 103.297 35.9108C103.264 35.8508 103.215 35.802 103.154 35.7712C103.093 35.7403 103.024 35.7288 102.957 35.7383C102.889 35.7478 102.826 35.7777 102.776 35.824C102.727 35.8704 102.692 35.9309 102.678 35.9975C102.6 36.4021 102.561 36.8132 102.563 37.2252C102.559 37.7259 102.45 38.2201 102.241 38.6755C102.105 38.9953 101.93 39.2974 101.721 39.5752C101.721 39.5752 102.853 34.8565 101.569 33.8677C101.569 33.8677 100.898 33.4296 100.865 35.1142C100.865 35.1142 100.497 38.6638 99.3668 39.2402C99.3668 39.2402 100.628 35.0814 100.539 33.3429C100.534 33.2491 100.5 33.1591 100.443 33.0846C100.386 33.0101 100.308 32.9544 100.219 32.9249C100.129 32.8953 100.033 32.8932 99.9429 32.9189C99.8525 32.9446 99.7718 32.9968 99.7115 33.0688C99.1839 33.685 98.45 35.2923 97.9482 39.4604C97.9482 39.4604 97.62 35.7257 97.8591 34.0997C97.8775 33.9884 97.8586 33.8741 97.8054 33.7746C97.7523 33.6751 97.6677 33.5958 97.565 33.5491C97.4622 33.5024 97.3468 33.4909 97.2368 33.5163C97.1268 33.5417 97.0283 33.6026 96.9564 33.6897C96.7079 33.9989 96.4523 34.6105 96.253 35.7398C96.1999 36.0216 96.1771 36.3083 96.185 36.595C96.2084 37.5322 96.2694 39.8213 96.3374 41.0021C96.3374 41.0021 96.0044 39.2449 94.5671 38.9661C94.5671 38.9661 93.8261 38.8794 94.8344 40.4867C94.8344 40.4867 97.0432 43.8816 97.076 45.2335C97.0643 45.2335 101.641 45.6014 102.277 47.0587Z" fill="#F4BBA8"/>
<path d="M173.309 67.0678C171.668 67.5716 172.015 65.0388 172.015 65.0388C172.101 64.0313 172.132 63.1035 172.12 62.2577C172.08 58.2629 171.161 56.0933 171.161 56.0933C170.983 55.4466 170.706 55.6598 170.692 56.0394C170.685 56.246 170.645 56.4502 170.573 56.6439C169.649 59.3102 166.483 59.411 166.483 59.411C160.621 59.3547 160.345 54.3454 160.345 54.3454C157.754 54.7414 156.513 52.375 156.513 52.375L160.12 52.3187C160.12 51.0231 161.864 49.7297 161.864 49.7297C161.351 45.735 155.723 41.8479 155.723 41.8479L155.475 41.7214C147.486 37.6095 146.991 34.081 146.991 34.081C146.833 33.5383 146.711 32.9857 146.625 32.4268C146.498 31.6309 146.48 30.8214 146.572 30.0206C146.712 28.7378 147.251 27.5311 148.112 26.5694C149.486 25.0394 151.421 24.3646 152.584 24.0811C153.065 23.9761 153.561 23.9492 154.051 24.0014C154.919 24.0694 154.314 22.994 154.314 22.994L150.881 18.6571C149.531 16.5765 150.208 15.6745 150.208 15.6745C151.449 14.503 152.856 16.1267 152.856 16.1267L157.271 19.9317L158.6 21.0797C161.923 24.1256 161.414 25.2971 161.414 25.2971C170.24 28.9311 172.268 41.0771 172.535 42.9515C172.559 43.1232 172.601 43.2921 172.659 43.4552C175.105 50.3459 175.382 61.4681 175.382 61.4681C175.555 66.1189 173.309 67.0678 173.309 67.0678Z" fill="#F7F8FF"/>
<path opacity="0.3" d="M173.309 67.0678C171.668 67.5716 172.015 65.0388 172.015 65.0388C172.101 64.0313 172.132 63.1035 172.12 62.2577C175.119 62.3631 173.489 52.7967 173.489 52.7967C172.219 43.8395 169.757 37.4853 168.718 35.0861C168.413 34.3757 168.045 33.6942 167.618 33.05C163.632 27.1199 157.001 24.1045 157.001 24.1045H158.302C158.456 24.1078 158.608 24.0732 158.746 24.0038C158.883 23.9345 159.001 23.8325 159.089 23.7068C159.178 23.5811 159.234 23.4356 159.253 23.2831C159.272 23.1306 159.253 22.9758 159.198 22.8323C158.706 21.5835 157.261 19.9317 157.261 19.9317L158.591 21.0797C161.913 24.1256 161.405 25.2971 161.405 25.2971C170.23 28.9311 172.258 41.0771 172.526 42.9515C172.55 43.1232 172.591 43.292 172.65 43.4552C175.096 50.3459 175.372 61.4681 175.372 61.4681C175.555 66.1189 173.309 67.0678 173.309 67.0678Z" fill="#4169E1"/>
<path opacity="0.3" d="M163.093 58.6143C163.093 58.6143 171.928 59.3688 169.152 51.6205C169.152 51.6205 170.465 52.5577 170.694 56.0394C170.694 56.0394 170.568 58.8791 166.474 59.4109C166.486 59.4109 164.931 59.6312 163.093 58.6143Z" fill="#4169E1"/>
<path d="M166.099 52.8576C165.756 53.345 164.579 54.9944 163.89 55.6692C163.866 55.6918 163.85 55.7209 163.842 55.7528C163.834 55.7847 163.836 55.8181 163.848 55.8489C163.859 55.8798 163.879 55.9067 163.905 55.9263C163.931 55.946 163.963 55.9576 163.995 55.9597C164.762 56.0207 166.476 56.0183 167.67 55.0061C167.67 55.0061 168.324 53.284 166.364 52.7522C166.314 52.7401 166.262 52.7438 166.214 52.7627C166.167 52.7816 166.126 52.8147 166.099 52.8576Z" fill="#4169E1"/>
<path d="M168.088 43.8999C169.602 43.7235 170.603 41.6447 170.325 39.2566C170.046 36.8685 168.593 35.0756 167.079 35.252C165.565 35.4283 164.564 37.5072 164.842 39.8953C165.121 42.2834 166.574 44.0763 168.088 43.8999Z" fill="#4169E1"/>
<path d="M155.489 41.7214L154.759 41.3371H154.738C147.47 37.3963 147.001 34.0903 147.001 34.0903C146.842 33.5476 146.72 32.995 146.635 32.4362C147.901 30.9249 149.918 29.8237 152.262 29.5496C154.905 29.245 157.367 30.044 158.957 31.5201C159.942 32.3979 160.578 33.6018 160.746 34.9103C161.095 37.8859 158.83 40.6717 155.489 41.7214Z" fill="#4169E1"/>
<path opacity="0.2" d="M155.489 41.7214L154.76 41.3372H154.738C162.997 38.4225 159.09 31.7309 158.959 31.5201C159.944 32.3983 160.578 33.6021 160.746 34.9104C161.095 37.886 158.83 40.6718 155.489 41.7214Z" fill="black"/>
<path d="M148.117 26.5693C147.257 27.5314 146.719 28.738 146.579 30.0205C146.508 29.8987 144.703 26.8903 142.811 25.5173C142.811 25.5173 139.652 23.3313 141.404 22.7573C141.404 22.7573 143.148 21.5717 146.576 24.8894L148.117 26.5693Z" fill="#4169E1"/>
<path opacity="0.2" d="M148.117 26.5693C146.63 28.3758 146.576 30.0205 146.576 30.0205L146.234 29.4746C147.261 25.3065 142.635 22.5511 142.635 22.5511C142.635 22.5511 144.276 22.6073 145.941 24.306L146.579 24.8894L148.117 26.5693Z" fill="black"/>
<path d="M149.111 25.665C149.111 25.665 146.632 21.232 139.263 18.5306C139.263 18.5306 136.32 17.3591 131.572 17.3755C131.004 17.382 130.438 17.3175 129.886 17.1834C128.714 16.8858 127.119 16.1618 127.53 14.4514C127.53 14.4514 128.289 9.96696 137.687 12.5536C137.687 12.5536 147.744 14.8732 151.843 24.2873C151.852 24.2873 150.107 24.7606 149.111 25.665Z" fill="#4169E1"/>
<path opacity="0.2" d="M149.111 25.6649C149.909 25.0048 150.846 24.5338 151.852 24.2873C151.852 24.2873 149.976 19.0999 144.496 15.6745C144.496 15.6745 150.497 22.0942 148.579 24.8894L149.111 25.6649Z" fill="black"/>
<path opacity="0.45" d="M148.541 110.924C154.226 110.924 158.835 106.319 158.835 100.638C158.835 94.9574 154.226 90.3524 148.541 90.3524C142.856 90.3524 138.248 94.9574 138.248 100.638C138.248 106.319 142.856 110.924 148.541 110.924Z" fill="white"/>
<path d="M148.541 111.057C146.477 111.057 144.459 110.446 142.743 109.3C141.027 108.154 139.689 106.525 138.899 104.62C138.109 102.714 137.902 100.617 138.305 98.5942C138.708 96.5712 139.702 94.713 141.161 93.2545C142.621 91.7961 144.481 90.8029 146.505 90.4005C148.53 89.9981 150.628 90.2046 152.535 90.9939C154.442 91.7832 156.072 93.1199 157.219 94.8349C158.366 96.5498 158.978 98.5661 158.978 100.629C158.975 103.394 157.874 106.044 155.917 107.999C153.961 109.954 151.308 111.054 148.541 111.057ZM148.541 90.4859C146.534 90.4859 144.571 91.0808 142.902 92.1953C141.233 93.3098 139.932 94.8939 139.163 96.7472C138.395 98.6006 138.194 100.64 138.586 102.607C138.977 104.575 139.944 106.382 141.364 107.801C142.783 109.219 144.592 110.185 146.561 110.577C148.53 110.968 150.571 110.767 152.426 109.999C154.28 109.232 155.866 107.932 156.981 106.264C158.096 104.596 158.692 102.635 158.692 100.629C158.686 97.9412 157.615 95.3656 155.712 93.4662C153.809 91.5667 151.231 90.4984 148.541 90.4953V90.4859Z" fill="#4169E1"/>
<path d="M143.603 105.823C143.494 105.824 143.389 105.782 143.31 105.706C143.269 105.668 143.236 105.621 143.213 105.57C143.189 105.519 143.177 105.464 143.175 105.408C143.173 105.351 143.182 105.295 143.202 105.243C143.222 105.19 143.253 105.142 143.291 105.101L147.134 101.025C147.172 100.981 147.219 100.946 147.271 100.921C147.323 100.896 147.379 100.881 147.437 100.878C147.494 100.876 147.552 100.885 147.606 100.905C147.66 100.925 147.71 100.955 147.752 100.995C147.794 101.034 147.827 101.082 147.851 101.135C147.874 101.188 147.886 101.245 147.887 101.303C147.887 101.36 147.876 101.417 147.854 101.471C147.832 101.524 147.799 101.572 147.758 101.613L143.915 105.69C143.875 105.732 143.826 105.766 143.773 105.789C143.719 105.812 143.661 105.823 143.603 105.823Z" fill="#4169E1"/>
<path d="M149.563 95.4531C148.907 95.4526 148.265 95.6466 147.72 96.0107C147.174 96.3747 146.748 96.8923 146.497 97.498C146.245 98.1038 146.179 98.7705 146.307 99.4137C146.435 100.057 146.75 100.648 147.214 101.112C147.678 101.576 148.269 101.892 148.913 102.02C149.557 102.148 150.224 102.082 150.83 101.832C151.437 101.581 151.955 101.156 152.32 100.611C152.684 100.065 152.879 99.4242 152.879 98.7684C152.879 97.8895 152.53 97.0466 151.908 96.4249C151.286 95.8033 150.443 95.4537 149.563 95.4531ZM149.563 101.311C149.058 101.311 148.565 101.161 148.145 100.881C147.725 100.6 147.398 100.202 147.204 99.7354C147.011 99.2692 146.961 98.7562 147.059 98.2612C147.158 97.7663 147.401 97.3117 147.758 96.9548C148.115 96.598 148.57 96.355 149.065 96.2565C149.561 96.1581 150.074 96.2086 150.541 96.4017C151.007 96.5948 151.406 96.9219 151.687 97.3415C151.967 97.7611 152.117 98.2544 152.117 98.759C152.118 99.0948 152.053 99.4274 151.925 99.738C151.797 100.048 151.609 100.331 151.372 100.568C151.135 100.806 150.853 100.995 150.543 101.123C150.232 101.252 149.899 101.318 149.563 101.318V101.311Z" fill="#4169E1"/>
<path d="M57.6816 83.8576C57.6816 83.8576 55.5268 92.9039 58.092 99.5158C58.092 99.5158 59.3159 106.339 70.0901 106.503L92.9445 106.91C92.9445 106.91 92.5365 115.368 97.5965 126.755L100.781 134.721C100.781 134.721 107.637 136.027 109.925 133.081L105.925 111.224L104.211 101.763C104.211 101.763 104.211 96.0646 99.069 94.5908L89.6009 93.0445L102.279 85.5469C102.279 85.5469 102.579 94.4924 105.843 99.5228L111.236 110.443C111.236 110.443 115.642 110.75 118.336 107.201C118.336 107.201 115.03 97.6602 113.072 84.8136L112.277 79.8582C112.277 79.8582 112.092 71.3555 103.4 72.7636L78.0295 79.3497L64.4603 82.5667L57.6816 83.8576Z" fill="#2F3B42"/>
<path opacity="0.2" d="M94.5788 90.097L82.9277 90.7179C78.0576 90.3922 80.1351 87.6041 80.1351 87.6041C75.9802 91.0412 81.352 92.0159 81.352 92.0159L89.6009 93.0445L94.5788 90.097Z" fill="black"/>
<path d="M100.781 134.721V135.816C100.781 135.816 107.581 137.767 109.747 135.366L108.847 134.019C108.847 134.019 106.701 135.645 100.781 134.721Z" fill="#F4BBA8"/>
<path d="M100.429 143.742C100.429 143.742 99.3856 143.395 99.7256 140.891L100.774 135.816C100.774 135.816 107.09 137.69 109.74 135.366C109.74 135.366 113.227 139.431 117.332 141.458C117.332 141.458 122.127 142.798 119.951 147.135C119.74 147.564 119.385 147.905 118.948 148.1C117.679 148.658 114.547 149.398 108.842 147.163L100.429 143.742Z" fill="#4169E1"/>
<path d="M118.057 107.543L118.931 108.246C118.931 108.246 117.264 111.292 112.366 112.077L111.808 110.458C112.995 110.431 114.164 110.159 115.239 109.657C116.315 109.155 117.275 108.435 118.057 107.543Z" fill="#F4BBA8"/>
<path d="M132.154 113.166C131.987 118.107 121.82 118.384 121.82 118.384C121.586 118.365 121.368 118.349 121.157 118.342C120.88 118.328 120.62 118.323 120.378 118.328C118.223 118.344 117.375 118.883 117.375 118.883C115.241 119.572 113.968 118.984 113.208 118.084C112.19 116.877 112.099 115.113 112.099 115.113C111.541 111.945 112.376 112.067 112.376 112.067C117.487 111.179 118.941 108.236 118.941 108.236C120.552 109.736 127.886 110.111 127.886 110.111C131.654 110.111 132.201 111.737 132.217 112.618C132.223 112.803 132.202 112.987 132.154 113.166Z" fill="#4169E1"/>
<path d="M120.655 119.607L116.2 120.27C113.729 120.432 113.299 118.314 113.199 118.084C113.958 118.984 115.232 119.572 117.365 118.883C117.365 118.883 118.214 118.344 120.369 118.328L120.655 119.607Z" fill="#2F3B42"/>
<path d="M121.361 119.52L121.157 118.349C121.368 118.349 121.588 118.372 121.82 118.391C121.82 118.391 131.987 118.114 132.154 113.173C132.198 112.994 132.217 112.809 132.208 112.625C135.073 119.225 121.361 119.52 121.361 119.52Z" fill="#2F3B42"/>
<path d="M65.2974 46.8502C68.1425 46.8502 70.4489 43.0308 70.4489 38.3194C70.4489 33.608 68.1425 29.7886 65.2974 29.7886C62.4524 29.7886 60.146 33.608 60.146 38.3194C60.146 43.0308 62.4524 46.8502 65.2974 46.8502Z" fill="#F4BBA8"/>
<path d="M60.9034 42.7734C60.9034 42.7734 58.153 43.3451 57.4777 37.5228C57.4777 37.5228 54.6453 30.051 59.1894 30.1213C59.1894 30.1213 61.0277 25.9039 65.8649 27.9189C65.8649 27.9189 68.8639 25.1073 71.8019 28.0407C71.8019 28.0407 73.6777 34.1512 70.2285 35.8663C70.1077 35.7212 69.9466 35.615 69.7655 35.5612C69.5844 35.5074 69.3914 35.5084 69.2109 35.5641C69.2109 35.5641 67.5367 36.267 65.947 35.2595C65.947 35.2595 60.9058 33.7904 61.2739 38.1952L60.5376 41.5972C60.5376 41.5972 60.7791 42.4524 60.9034 42.7734Z" fill="#2F3B42"/>
<path d="M60.4696 41.5972C61.3255 41.5972 62.0195 40.7748 62.0195 39.7603C62.0195 38.7458 61.3255 37.9234 60.4696 37.9234C59.6136 37.9234 58.9197 38.7458 58.9197 39.7603C58.9197 40.7748 59.6136 41.5972 60.4696 41.5972Z" fill="#F4BBA8"/>
<path d="M77.2628 77.5339L77.9076 78.6023C78.0148 78.7782 78.0488 78.9889 78.0024 79.1895C77.9559 79.3901 77.8327 79.5646 77.659 79.6754C75.7199 80.9055 69.3398 84.3098 58.3921 84.0943C58.1902 84.0927 57.9917 84.0416 57.8141 83.9455C57.6366 83.8494 57.4853 83.7111 57.3737 83.5429C57.2621 83.3747 57.1936 83.1817 57.1741 82.9809C57.1546 82.78 57.1848 82.5774 57.2619 82.3909L57.276 82.3581C57.276 82.3581 69.436 82.1988 76.6203 78.2813C76.8905 78.0864 77.1107 77.8303 77.2628 77.5339Z" fill="#4169E1"/>
<path opacity="0.2" d="M77.2628 77.5339L77.9076 78.6023C78.0148 78.7782 78.0488 78.9889 78.0024 79.1895C77.9559 79.3901 77.8327 79.5646 77.659 79.6754C75.7199 80.9055 69.3398 84.3098 58.3921 84.0943C58.1902 84.0927 57.9917 84.0416 57.8141 83.9455C57.6366 83.8494 57.4853 83.7111 57.3737 83.5429C57.2621 83.3747 57.1936 83.1817 57.1741 82.9809C57.1546 82.78 57.1848 82.5774 57.2619 82.3909L57.276 82.3581C57.276 82.3581 69.436 82.1988 76.6203 78.2813C76.8905 78.0864 77.1107 77.8303 77.2628 77.5339Z" fill="black"/>
<path d="M107.611 51.1215L109.266 41.0021C109.69 39.4418 110.483 38.006 111.578 36.8155C112.672 35.6249 114.037 34.7144 115.557 34.1606C118.045 33.2234 120.88 33.6147 122.88 35.3625C124.052 36.3841 125.03 37.9164 125.133 40.1961L123.476 51.4565C123.476 51.4565 122.772 57.642 115.996 59.4648C113.607 60.1068 111.02 59.5187 109.306 57.7357C108.038 56.4166 107.083 54.3431 107.611 51.1215Z" fill="#4169E1"/>
<path d="M114.744 57.9536C111.461 57.5248 109.241 53.9893 109.766 50.0578C109.782 49.9312 109.801 49.8047 109.824 49.6805L110.912 43.3545H110.901C110.841 43.3452 110.782 43.3303 110.725 43.31L109.635 49.6501C108.915 53.6753 111.041 57.4686 114.385 58.1223C114.491 58.1434 114.596 58.1598 114.704 58.1739C116.46 58.4081 118.261 57.7943 119.705 56.4682C119.667 56.4063 119.637 56.3403 119.614 56.2713C118.207 57.5764 116.455 58.1809 114.744 57.9536Z" fill="white"/>
<path d="M118.634 35.3555C115.393 34.9104 112.228 37.4197 111.173 41.0935C111.213 41.0955 111.253 41.101 111.292 41.1099H111.363C112.401 37.5603 115.473 35.14 118.599 35.5758C121.881 36.0022 124.102 39.5378 123.577 43.4693C123.56 43.5958 123.541 43.7223 123.518 43.8489L122.219 51.398C122.021 52.5636 121.594 53.6784 120.962 54.6781C121.02 54.7078 121.073 54.7466 121.119 54.7929C121.767 53.77 122.204 52.6287 122.406 51.4354L123.705 43.8863C124.428 39.8634 122.299 36.0678 118.962 35.4118C118.849 35.379 118.742 35.379 118.634 35.3555Z" fill="white"/>
<path d="M118.366 36.8996C119.407 37.0498 120.366 37.5449 121.091 38.3053C121.128 38.2404 121.171 38.1785 121.218 38.1202C120.468 37.3369 119.478 36.8271 118.404 36.6723C117.179 36.5216 115.94 36.8106 114.908 37.4876C114.932 37.5571 114.95 37.6284 114.962 37.7009C115.965 37.0365 117.172 36.7523 118.366 36.8996Z" fill="white"/>
<path d="M110.523 50.5193C110.531 50.1265 110.568 49.7349 110.636 49.3478L111.785 42.675C112.01 41.3307 112.587 40.0698 113.456 39.0199C113.407 38.9792 113.362 38.9328 113.323 38.8817C112.427 39.9617 111.833 41.259 111.599 42.6422L110.45 49.315C110.381 49.7231 110.342 50.1359 110.336 50.5498C110.397 50.5315 110.46 50.5212 110.523 50.5193Z" fill="white"/>
<path d="M122.367 39.8142C122.315 39.863 122.257 39.9055 122.195 39.9407C122.787 41.2756 122.961 42.7576 122.697 44.1932L121.551 50.8661C120.899 54.493 118.01 57.0258 114.967 56.6368C113.769 56.4623 112.683 55.8381 111.93 54.8913C111.871 54.9335 111.806 54.9674 111.738 54.9921C112.517 56.0073 113.66 56.6796 114.927 56.8664C118.076 57.2694 121.065 54.65 121.726 50.8965L122.875 44.2237C123.153 42.7362 122.976 41.1995 122.367 39.8142Z" fill="white"/>
<path d="M112.064 45.4233L112.444 43.2209C113.006 40.0813 115.506 37.893 118.137 38.228C120.341 38.5139 121.968 40.6694 121.987 43.3287C122.05 43.3217 122.114 43.3217 122.177 43.3287C122.177 40.5546 120.472 38.296 118.172 37.9984C115.435 37.647 112.835 39.9244 112.251 43.1881L111.876 45.414C111.921 45.4116 111.965 45.4116 112.01 45.414L112.064 45.4233Z" fill="white"/>
<path d="M117.234 55.06C116.587 55.3065 115.889 55.387 115.203 55.2943C112.706 54.9757 111.002 52.2883 111.395 49.2893C111.407 49.1885 111.424 49.0878 111.442 48.9894L111.677 47.6609H111.616C111.573 47.6541 111.531 47.6439 111.489 47.6304L111.255 48.9659C110.701 52.061 112.336 54.978 114.903 55.4818C114.988 55.4982 115.07 55.5122 115.152 55.5216C115.879 55.619 116.618 55.5312 117.302 55.2662C117.272 55.2002 117.249 55.1311 117.234 55.06Z" fill="white"/>
<path d="M121.787 45.592L121.708 45.5803L120.894 50.3202C120.664 51.7168 119.988 53.0019 118.969 53.9846C118.999 54.0523 119.022 54.123 119.037 54.1955C120.123 53.1714 120.842 51.8186 121.082 50.346L121.895 45.6038L121.787 45.592Z" fill="white"/>
<path d="M119.572 39.9923C119.095 39.6382 118.537 39.4094 117.949 39.3269C115.623 39.0293 113.412 40.967 112.915 43.7387L112.073 48.6332C112.024 48.9222 111.995 49.2142 111.986 49.5072C112.048 49.4547 112.116 49.4098 112.188 49.3736C112.197 49.138 112.222 48.9033 112.261 48.6707L113.105 43.7762C113.574 41.1286 115.684 39.28 117.909 39.5588C118.466 39.6388 118.993 39.8571 119.443 40.1938C119.48 40.1234 119.524 40.056 119.572 39.9923Z" fill="white"/>
<path d="M120.833 41.548C120.789 41.6076 120.738 41.6625 120.683 41.712C121.135 42.7005 121.272 43.804 121.075 44.8727L120.23 49.7672C119.762 52.3445 117.768 54.1627 115.602 53.9963C115.572 54.0739 115.534 54.1484 115.489 54.2189C117.787 54.4532 119.944 52.5226 120.413 49.7953L121.255 44.8985C121.468 43.765 121.32 42.5936 120.833 41.548Z" fill="white"/>
<path d="M116.92 40.8756C116.934 40.7961 116.954 40.7177 116.981 40.6413C116.468 40.705 115.977 40.8862 115.546 41.1708C115.6 41.2155 115.647 41.2675 115.686 41.3254C116.062 41.0913 116.482 40.9381 116.92 40.8756Z" fill="white"/>
<path d="M119.283 50.2171C118.61 51.8572 117.14 52.8529 115.654 52.6655C113.935 52.4429 112.767 50.5873 113.041 48.5255C113.041 48.4575 113.06 48.3896 113.074 48.3216L113.764 44.3081C113.845 43.8386 113.998 43.3843 114.216 42.9609C114.169 42.899 114.129 42.8313 114.099 42.7594C113.845 43.2341 113.67 43.7469 113.581 44.2776L112.889 48.2888C112.505 50.4561 113.649 52.5062 115.447 52.8506C115.506 52.8623 115.562 52.8717 115.621 52.8787C117.196 53.0755 118.751 52.0282 119.466 50.285C119.403 50.2683 119.342 50.2456 119.283 50.2171Z" fill="white"/>
<path d="M120.268 45.2195L120.125 46.0536C120.176 46.0477 120.227 46.0477 120.277 46.0536H120.317L120.458 45.2335C120.765 43.4833 120.071 41.7636 118.758 41.0162C118.753 41.0951 118.741 41.1735 118.723 41.2505C119.928 41.9862 120.552 43.5794 120.268 45.2195Z" fill="white"/>
<path d="M117.504 41.9721C115.998 41.78 114.568 43.0335 114.247 44.8282L114.094 45.7186C114.157 45.7328 114.218 45.7532 114.277 45.7795L114.437 44.854C114.737 43.1811 116.078 42.0166 117.471 42.1994C118.8 42.3751 119.701 43.8114 119.487 45.4046C119.487 45.4538 119.473 45.503 119.464 45.5522L118.91 48.6801C118.65 50.128 117.604 51.2269 116.376 51.3441C116.373 51.4229 116.363 51.5014 116.345 51.5784C117.677 51.4659 118.819 50.2803 119.1 48.7105L119.64 45.585C119.944 43.8817 119.044 42.2767 117.63 42.0002C117.586 41.9862 117.539 41.9768 117.504 41.9721Z" fill="white"/>
<path d="M115.36 44.3901C115.4 44.3919 115.439 44.3974 115.478 44.4065C115.656 44.1088 115.915 43.8675 116.224 43.71C116.534 43.5525 116.881 43.4853 117.227 43.5161C117.426 43.5427 117.618 43.6105 117.79 43.7153C117.82 43.6465 117.857 43.5806 117.9 43.5185C117.708 43.3967 117.492 43.3168 117.267 43.2842C116.502 43.1881 115.736 43.6052 115.271 44.3713C115.302 44.3753 115.331 44.3815 115.36 44.3901Z" fill="white"/>
<path d="M118.251 48.1365C118.205 48.3919 118.122 48.639 118.003 48.8699C118.06 48.9042 118.11 48.9478 118.153 48.9987C118.291 48.7365 118.388 48.4543 118.439 48.1623L118.826 45.9177C118.86 45.7087 118.871 45.4965 118.859 45.2851C118.799 45.3135 118.735 45.3332 118.669 45.3437C118.678 45.5278 118.667 45.7125 118.636 45.8943L118.251 48.1365Z" fill="white"/>
<path d="M116.526 50.0086C116.387 50.0285 116.245 50.0285 116.106 50.0086C115.168 49.8797 114.535 48.8628 114.699 47.7382L114.713 47.6398L114.889 46.6253C114.826 46.61 114.766 46.5872 114.709 46.5573L114.526 47.614C114.305 48.8511 114.962 50.0179 115.991 50.2171L116.085 50.2311C116.241 50.2525 116.398 50.2525 116.554 50.2311C116.54 50.1576 116.53 50.0833 116.526 50.0086Z" fill="white"/>
<path d="M117.035 44.6197C116.348 44.533 115.698 45.107 115.555 45.9247L115.321 47.286C115.297 47.4119 115.29 47.5402 115.3 47.6679C115.356 47.6074 115.42 47.5547 115.489 47.5109C115.491 47.445 115.497 47.3792 115.508 47.3141L115.743 45.9528C115.867 45.264 116.416 44.7813 116.995 44.8587C117.574 44.936 117.914 45.5264 117.825 46.1848C117.824 46.2035 117.824 46.2223 117.825 46.241L117.59 47.6C117.557 47.8281 117.466 48.044 117.326 48.227C117.185 48.41 117 48.5539 116.788 48.6449C116.773 48.7292 116.751 48.8122 116.723 48.8933C117 48.8022 117.246 48.6351 117.433 48.4109C117.619 48.1868 117.739 47.9147 117.778 47.6257L118.012 46.2668C118.155 45.4936 117.75 44.7626 117.11 44.6267L117.035 44.6197Z" fill="white"/>
<path d="M115.518 45.8263L113.597 51.18C113.576 51.2397 113.569 51.3036 113.577 51.3664C113.586 51.4292 113.609 51.489 113.646 51.5408C113.683 51.5925 113.731 51.6347 113.788 51.6637C113.844 51.6926 113.907 51.7076 113.97 51.7072H117.471C117.523 51.7072 117.576 51.6967 117.624 51.6762C117.673 51.6557 117.717 51.6256 117.754 51.5878C117.79 51.55 117.819 51.5052 117.838 51.4561C117.857 51.407 117.866 51.3546 117.865 51.3019L117.694 45.824C117.694 45.824 119.382 44.6291 118.927 42.8671C118.826 42.5067 118.614 42.1869 118.322 41.9528C118.03 41.7187 117.671 41.5821 117.297 41.5621C116.951 41.5451 116.606 41.6008 116.283 41.7255C115.959 41.8502 115.666 42.0411 115.421 42.2861C115.171 42.5239 114.976 42.8132 114.849 43.1341C114.721 43.4549 114.666 43.7995 114.685 44.1441C114.696 44.4676 114.776 44.785 114.919 45.0752C115.063 45.3653 115.267 45.6214 115.518 45.8263Z" fill="#2F3B42"/>
<path d="M120.507 63.7337H106.253C104.872 63.7337 103.752 64.853 103.752 66.2337V67.3232C103.752 68.7039 104.872 69.8232 106.253 69.8232H120.507C121.889 69.8232 123.009 68.7039 123.009 67.3232V66.2337C123.009 64.853 121.889 63.7337 120.507 63.7337Z" fill="#F7F8FF"/>
<path d="M88.1073 50.517C88.1399 50.5199 88.1723 50.5101 88.1979 50.4897C88.2234 50.4693 88.24 50.4398 88.2442 50.4074C88.2485 50.375 88.24 50.3422 88.2206 50.3159C88.2012 50.2896 88.1724 50.2718 88.1402 50.2663C88.1076 50.2634 88.0752 50.2731 88.0496 50.2936C88.0241 50.314 88.0075 50.3435 88.0033 50.3759C87.999 50.4083 88.0075 50.4411 88.0269 50.4674C88.0463 50.4937 88.0751 50.5114 88.1073 50.517Z" fill="#4169E1"/>
<path d="M85.3639 59.8139C78.1303 69.7505 68.9506 75.2542 68.9506 75.2542C64.3689 78.6187 62.0241 78.6375 62.0241 78.6375C57.0087 79.0873 48.802 60.1419 48.802 60.1419C47.7164 57.724 47.2264 55.8777 47.0786 54.4743C46.7293 51.2128 48.2135 50.367 48.2135 50.367C50.8303 47.4125 53.4869 51.9298 53.4869 51.9298L62.4298 66.6297C63.567 65.7253 64.4744 67.37 64.4744 67.37C65.5131 66.2196 69.6774 64.0032 69.6774 64.0032C75.1009 60.887 81.019 55.2966 81.019 55.2966C83.5983 55.8426 84.6675 57.171 85.0942 58.2371C85.2966 58.7372 85.3886 59.275 85.3639 59.8139Z" fill="#4169E1"/>
<path opacity="0.3" d="M85.3639 59.8139C78.1303 69.7505 68.9506 75.2542 68.9506 75.2542C64.3689 78.6187 62.0241 78.6375 62.0241 78.6375C57.0087 79.0873 48.802 60.1419 48.802 60.1419C47.7164 57.724 47.2264 55.8777 47.0786 54.4743C46.7293 51.2128 48.2135 50.367 48.2135 50.367C50.8303 47.4125 53.4869 51.9298 53.4869 51.9298L62.4298 66.6297C63.567 65.7253 64.4744 67.37 64.4744 67.37C65.5131 66.2196 69.6774 64.0032 69.6774 64.0032C75.1009 60.887 81.019 55.2966 81.019 55.2966C83.5983 55.8426 84.6675 57.171 85.0942 58.2371C85.2966 58.7372 85.3886 59.275 85.3639 59.8139Z" fill="white"/>
<path opacity="0.3" d="M85.3639 59.8139C78.1303 69.7505 68.9505 75.2542 68.9505 75.2542C64.3689 78.6187 62.0241 78.6375 62.0241 78.6375C57.0087 79.0873 48.802 60.142 48.802 60.142C47.7164 57.724 47.2263 55.8777 47.0786 54.4743C47.0786 54.4743 58.099 76.8123 60.4836 72.541C60.4836 72.541 62.1929 68.0261 62.0312 71.475C62.0312 71.475 60.8025 77.4683 67.131 74.0194C67.131 74.0194 75.0282 71.7655 85.0919 58.2348C85.2954 58.7354 85.3882 59.2741 85.3639 59.8139Z" fill="white"/>
<path d="M97.3782 38.2999L96.305 37.7917L95.7514 38.8569L96.7387 39.5672L96.057 40.9778L95.1717 40.4692L94.5308 41.5732L95.5613 42.0967L92.5522 48.6655C91.8058 48.5224 91.0374 48.5406 90.2986 48.7191C89.5599 48.8975 88.868 49.232 88.2694 49.7001C86.3557 51.1839 85.7023 54.2753 86.8489 56.4119C87.2168 57.0994 87.7312 57.6979 88.3557 58.1653C88.9802 58.6326 89.6997 58.9574 90.4635 59.1168C91.2273 59.2761 92.0167 59.2662 92.7762 59.0876C93.5357 58.909 94.2468 58.5661 94.8593 58.0832C96.9163 56.4727 97.4545 53.2189 96.0433 51.0219C95.767 50.5896 95.4293 50.1997 95.0407 49.8645L100.458 37.7888C100.492 37.7114 100.496 37.624 100.469 37.5439L99.8137 35.6521C99.8116 35.6454 99.808 35.6392 99.8031 35.6341C99.7983 35.6289 99.7923 35.625 99.7857 35.6225C99.7791 35.6201 99.772 35.6192 99.7649 35.6199C99.7579 35.6206 99.7511 35.6229 99.7451 35.6266L98.1642 36.6303C98.1077 36.6672 98.0634 36.7202 98.0371 36.7824L97.3782 38.2999ZM91.7773 54.3893C91.9175 54.4797 92.045 54.5883 92.1565 54.7124C92.3309 54.9026 92.4659 55.1254 92.5539 55.3679C92.642 55.6104 92.6812 55.8679 92.6694 56.1256C92.6576 56.3833 92.595 56.6361 92.4853 56.8696C92.3755 57.1031 92.2206 57.3126 92.0297 57.4862C91.771 57.7223 91.4526 57.8833 91.109 57.9517C90.7932 58.017 90.4663 58.0034 90.157 57.9123C89.8477 57.8211 89.5657 57.6552 89.336 57.4292C89.1062 57.2032 88.9357 56.9241 88.8396 56.6165C88.7435 56.309 88.7247 55.9825 88.785 55.666C88.8453 55.3495 88.9827 55.0527 89.1851 54.802C89.3875 54.5512 89.6487 54.3541 89.9455 54.2282C90.2423 54.1023 90.5655 54.0515 90.8867 54.0802C91.2078 54.1089 91.5169 54.2163 91.7867 54.3929L91.7773 54.3893Z" fill="#4169E1"/>
<path d="M84.5245 50.517C83.3025 52.1459 82.3195 53.9408 81.6052 55.8473L85.3568 59.2891C85.3568 59.2891 86.9302 57.4405 87.5562 55.8473C87.8491 55.3933 88.2587 55.0264 88.7421 54.7848C89.2256 54.5433 89.7651 54.436 90.3043 54.4743L92.1379 54.6477C92.2062 54.6543 92.2751 54.6431 92.3378 54.6151C92.4005 54.5871 92.4548 54.5433 92.4955 54.4881C92.5361 54.4328 92.5617 54.3679 92.5697 54.2998C92.5778 54.2316 92.5679 54.1626 92.5412 54.0994C92.5061 54.0146 92.4422 53.9449 92.3606 53.9026C91.4916 53.4875 90.5488 53.2486 89.5868 53.1997C89.5685 53.1997 89.5508 53.1931 89.5371 53.181C89.5234 53.169 89.5145 53.1523 89.5122 53.1342C89.5099 53.116 89.5143 53.0977 89.5246 53.0826C89.5349 53.0675 89.5503 53.0566 89.568 53.0521C90.0745 52.8998 91.1742 52.703 93.0242 52.9982C93.1119 53.0122 93.2017 53.0044 93.2857 52.9755C93.3696 52.9465 93.4451 52.8972 93.5054 52.8321C93.5657 52.767 93.609 52.6879 93.6314 52.6021C93.6538 52.5162 93.6547 52.4261 93.6339 52.3398C93.6141 52.2613 93.5769 52.1883 93.5249 52.1262C93.4729 52.0641 93.4076 52.0146 93.3337 51.9813C92.6983 51.6932 90.8928 50.9926 89.2304 51.4682C89.2304 51.4682 89.2163 50.7044 92.7991 50.7653H93.6221C93.7776 50.7653 93.9267 50.7036 94.0366 50.5938C94.1466 50.4839 94.2083 50.3349 94.2083 50.1796C94.2087 50.0309 94.1524 49.8877 94.0509 49.7789C93.9495 49.6701 93.8104 49.604 93.662 49.5938C92.0462 49.4784 90.4242 49.4784 88.8083 49.5938C88.7894 49.5955 88.7705 49.5905 88.7548 49.5797C88.7391 49.569 88.7277 49.5531 88.7224 49.5348C88.7172 49.5166 88.7184 49.4971 88.726 49.4796C88.7335 49.4622 88.7469 49.4479 88.7638 49.4392C89.432 49.0995 90.8741 48.4481 92.2973 48.2677C92.4354 48.2527 92.563 48.1872 92.6556 48.0838C92.7482 47.9804 92.7994 47.8465 92.7991 47.7077C92.7993 47.6298 92.7834 47.5527 92.7524 47.4812C92.7215 47.4096 92.6761 47.3453 92.6191 47.292C92.5621 47.2388 92.4947 47.1979 92.4212 47.1719C92.3477 47.1459 92.2696 47.1353 92.1918 47.1407C90.663 47.2462 86.6207 47.7968 84.5245 50.517Z" fill="#F4BBA8"/>
<path d="M160.885 74.1641C161.281 74.253 161.548 75.2076 161.728 76.5075M161.728 76.5075C162.115 79.3058 162.098 83.7045 162.098 84.5133C162.098 84.868 162.133 85.3273 162.075 85.7438M161.728 76.5075C160.117 76.6826 158.755 77.852 158.054 79.3059C157.427 80.6045 157.247 83.1211 157.906 84.9062M161.728 76.5075C161.965 76.4817 162.209 76.4775 162.456 76.4973C164.024 76.6228 164.82 78.174 165.254 79.5108C165.79 81.1595 165.783 83.0967 164.487 84.3938C163.879 85.0019 163.05 85.4862 162.217 85.7084C162.169 85.7212 162.122 85.7329 162.075 85.7438M162.075 85.7438C162.009 86.2199 161.819 86.64 161.313 86.784C159.502 87.2989 158.434 86.3378 157.906 84.9062M162.075 85.7438C160.45 86.1201 159.442 85.3546 157.906 84.9062M160.625 74.7014C161.023 74.6213 161.655 75.3847 162.347 76.4991M162.347 76.4991C163.838 78.898 165.611 82.9232 165.94 83.6621C166.084 83.9862 166.304 84.3912 166.42 84.7953M162.347 76.4991C160.947 77.3145 160.178 78.9372 160.129 80.5507C160.084 81.992 160.942 84.3644 162.27 85.727M162.347 76.4991C162.554 76.3787 162.775 76.2759 163.009 76.1933C164.492 75.67 165.85 76.7629 166.79 77.8074C167.95 79.0956 168.731 80.8682 168.074 82.5807C167.766 83.3836 167.205 84.1634 166.535 84.7053C166.496 84.7364 166.458 84.7664 166.42 84.7953M166.42 84.7953C166.552 85.2574 166.55 85.7183 166.146 86.056C164.701 87.2632 163.335 86.8199 162.27 85.727M166.42 84.7953C165.088 85.8005 163.856 85.5114 162.27 85.727M160.606 75.2981C160.937 75.0629 161.824 75.5032 162.91 76.2393M162.91 76.2393C165.247 77.824 168.503 80.7798 169.104 81.321C169.367 81.5584 169.732 81.8391 170.003 82.161M162.91 76.2393C161.962 77.5541 161.92 79.3494 162.53 80.8436C163.076 82.1783 164.824 83.9964 166.591 84.701M162.91 76.2393C163.05 76.0452 163.21 75.8615 163.39 75.6908C164.532 74.6091 166.217 75.0548 167.501 75.6264C169.084 76.3314 170.518 77.6329 170.614 79.4647C170.659 80.3235 170.464 81.264 170.071 82.0319C170.049 82.076 170.026 82.119 170.003 82.161M170.003 82.161C170.312 82.5291 170.497 82.9511 170.265 83.4241C169.436 85.115 168.008 85.2661 166.591 84.701M170.003 82.161C169.195 83.6212 167.952 83.8585 166.591 84.701M160.831 75.8508C161.038 75.5012 162.028 75.5422 163.319 75.7728M163.319 75.7728C166.098 76.2692 170.274 77.6445 171.043 77.8945C171.38 78.0041 171.828 78.1119 172.205 78.2961M163.319 75.7728C162.987 77.3596 163.678 79.0171 164.843 80.1336C165.884 81.131 168.22 82.0803 170.121 82.005M163.319 75.7728C163.368 75.5385 163.439 75.3057 163.534 75.0764C164.138 73.6234 165.858 73.3447 167.263 73.3446C168.996 73.3445 170.835 73.9499 171.667 75.5843C172.058 76.3505 172.262 77.289 172.216 78.1501C172.213 78.1996 172.21 78.2482 172.205 78.2961M172.205 78.2961C172.637 78.5065 172.978 78.8167 172.959 79.3431C172.889 81.2253 171.645 81.9447 170.121 82.005M172.205 78.2961C172.061 79.9587 171.022 80.6815 170.121 82.005M161.261 76.2645C161.308 75.8608 162.229 75.4954 163.502 75.1806M163.502 75.1806C166.243 74.503 170.617 74.06 171.421 73.9755C171.774 73.9384 172.226 73.8548 172.646 73.8692M163.502 75.1806C163.845 76.7651 165.149 77.9982 166.668 78.544C168.024 79.0316 170.544 78.948 172.25 78.1059M163.502 75.1806C163.452 74.9467 163.422 74.705 163.416 74.4568C163.377 72.8837 164.835 71.9289 166.119 71.3571C167.702 70.6519 169.628 70.4565 171.053 71.6108C171.72 72.152 172.289 72.9263 172.596 73.7317C172.614 73.778 172.631 73.8238 172.646 73.8692M172.646 73.8692C173.127 73.8857 173.564 74.0303 173.76 74.5192C174.461 76.2672 173.617 77.4305 172.25 78.1059M172.646 73.8692C173.19 75.4469 172.535 76.5301 172.25 78.1059M161.822 76.4667C161.701 76.0789 162.394 75.3703 163.429 74.5645M163.429 74.5645C165.658 72.83 169.473 70.6453 170.173 70.2409C170.481 70.0635 170.86 69.8029 171.25 69.6451M163.429 74.5645C164.386 75.8726 166.079 76.4682 167.688 76.3489C169.125 76.2423 171.394 75.1403 172.61 73.677M163.429 74.5645C163.288 74.3713 163.163 74.1626 163.056 73.9384C162.381 72.5172 163.325 71.0514 164.265 70.0068C165.424 68.7184 167.105 67.7559 168.876 68.2306C169.706 68.4532 170.539 68.9294 171.148 69.5399C171.183 69.5749 171.217 69.61 171.25 69.6451M171.25 69.6451C171.695 69.4647 172.153 69.4189 172.531 69.7857C173.882 71.0972 173.585 72.5033 172.61 73.677M171.25 69.6451C172.388 70.865 172.229 72.1214 172.61 73.677M162.417 76.4232C162.149 76.1183 162.494 75.189 163.112 74.0316M163.112 74.0316C164.443 71.5401 167.041 67.9915 167.516 67.3371C167.724 67.0501 167.965 66.6575 168.257 66.3548M163.112 74.0316C164.518 74.8372 166.307 74.6922 167.728 73.9284C168.998 73.2462 170.622 71.3163 171.138 69.4847M163.112 74.0316C162.904 73.9126 162.705 73.7729 162.517 73.6114C161.322 72.5879 161.589 70.8645 162.023 69.5277C162.558 67.8789 163.702 66.3158 165.513 66.0289C166.362 65.8943 167.317 65.99 168.121 66.3C168.167 66.3178 168.212 66.3361 168.257 66.3548M168.257 66.3548C168.59 66.0088 168.99 65.7804 169.485 65.9617C171.252 66.61 171.552 68.0158 171.138 69.4847M168.257 66.3548C169.792 67.006 170.158 68.2183 171.138 69.4847M162.943 76.1416C162.574 75.9723 162.512 74.983 162.606 73.674M162.606 73.674C162.809 70.8564 163.739 66.5574 163.907 65.7663C163.981 65.4192 164.041 64.9626 164.185 64.5673M162.606 73.674C164.218 73.8379 165.793 72.9774 166.781 71.7011C167.664 70.5612 168.363 68.1371 168.089 66.254M162.606 73.674C162.368 73.6498 162.129 73.6033 161.891 73.5325C160.384 73.0836 159.927 71.4006 159.78 70.0027C159.599 68.2786 160.008 66.3852 161.546 65.3862C162.267 64.9178 163.178 64.6165 164.039 64.5724C164.088 64.5699 164.137 64.5682 164.185 64.5673M164.185 64.5673C164.349 64.1155 164.622 63.7439 165.147 63.7084C167.025 63.5814 167.87 64.7438 168.089 66.254M164.185 64.5673C165.853 64.5372 166.68 65.4958 168.089 66.254M163.309 75.6698C162.903 75.6653 162.444 74.7871 161.998 73.553M161.998 73.553C161.038 70.8963 160.14 66.5903 159.972 65.7992C159.898 65.4522 159.768 65.0104 159.738 64.5909M161.998 73.553C163.537 73.0467 164.626 71.6194 165.01 70.0515C165.353 68.6509 165.006 66.1518 163.991 64.5428M161.998 73.553C161.771 73.6277 161.533 73.6824 161.287 73.7145C159.728 73.9179 158.626 72.5663 157.924 71.3491C157.057 69.8478 156.662 67.9514 157.66 66.413C158.128 65.6918 158.839 65.0456 159.607 64.655C159.651 64.6326 159.695 64.6112 159.738 64.5909M159.738 64.5909C159.705 64.1114 159.803 63.661 160.268 63.4148C161.932 62.5344 163.177 63.2524 163.991 64.5428M159.738 64.5909C161.25 63.8847 162.395 64.4238 163.991 64.5428M163.452 75.0901C163.079 75.2513 162.302 74.636 161.393 73.6901M161.393 73.6901C159.436 71.6538 156.866 68.0853 156.391 67.431C156.182 67.144 155.884 66.7935 155.686 66.4223M161.393 73.6901C162.594 72.6012 163.008 70.8541 162.722 69.2654C162.466 67.8465 161.133 65.7044 159.551 64.6477M161.393 73.6901C161.216 73.8509 161.022 73.9973 160.81 74.1268C159.468 74.9472 157.912 74.1608 156.776 73.3347C155.374 72.3158 154.242 70.7443 154.528 68.9327C154.663 68.0832 155.049 67.2039 155.592 66.5344C155.623 66.4959 155.655 66.4586 155.686 66.4223M155.686 66.4223C155.46 65.998 155.367 65.5466 155.692 65.1323C156.854 63.6508 158.283 63.8002 159.551 64.6477M155.686 66.4223C156.78 65.1621 158.045 65.1886 159.551 64.6477M163.347 74.5024C163.072 74.8014 162.112 74.5554 160.897 74.0612M160.897 74.0612C158.281 72.9974 154.482 70.7834 153.782 70.3791C153.475 70.2017 153.06 70.0031 152.729 69.7444M160.897 74.0612C161.551 72.578 161.219 70.813 160.312 69.4785C159.501 68.2864 157.413 66.8718 155.538 66.5501M160.897 74.0612C160.8 74.2802 160.682 74.4931 160.541 74.6975C159.649 75.9932 157.908 75.9078 156.534 75.6157C154.839 75.2554 153.166 74.2806 152.691 72.5088C152.469 71.6782 152.464 70.7177 152.688 69.885C152.701 69.8372 152.715 69.7903 152.729 69.7444M152.729 69.7444C152.35 69.4486 152.081 69.0744 152.209 68.5635C152.669 66.7371 154.035 66.2921 155.538 66.5501M152.729 69.7444C153.215 68.1481 154.382 67.6573 155.538 66.5501M163.011 74.0086C162.882 74.3937 161.905 74.5595 160.594 74.6025M160.594 74.6025C157.772 74.6951 153.402 74.2186 152.598 74.134C152.245 74.0969 151.785 74.0846 151.377 73.9831M160.594 74.6025C160.588 72.9815 159.568 71.5039 158.197 70.6541C156.971 69.8951 154.489 69.4525 152.646 69.9215M160.594 74.6025C160.595 74.8419 160.574 75.0844 160.528 75.3285C160.24 76.8753 158.614 77.5059 157.24 77.7982C155.546 78.1588 153.621 77.9492 152.467 76.5237C151.926 75.8553 151.531 74.9798 151.398 74.128C151.39 74.079 151.383 74.0308 151.377 73.9831M151.377 73.9831C150.911 73.8671 150.513 73.6346 150.423 73.1156C150.1 71.26 151.167 70.2976 152.646 69.9215M151.377 73.9831C151.173 72.3267 152.039 71.4035 152.646 69.9215M162.505 73.6939C162.543 74.0984 161.718 74.6474 160.538 75.2202M160.538 75.2202C157.997 76.4532 153.811 77.7964 153.042 78.0464C152.705 78.156 152.28 78.332 151.866 78.4053M160.538 75.2202C159.874 73.7416 158.341 72.8069 156.742 72.5888C155.315 72.3941 152.867 73.0001 151.373 74.1786M160.538 75.2202C160.636 75.4386 160.715 75.6688 160.772 75.9103C161.138 77.4409 159.909 78.6782 158.773 79.5045C157.371 80.5236 155.528 81.1155 153.894 80.2827C153.128 79.8923 152.412 79.2531 151.943 78.5293C151.916 78.4878 151.891 78.4464 151.866 78.4053M151.866 78.4053C151.393 78.489 150.935 78.4386 150.641 78.0011C149.592 76.4372 150.176 75.1238 151.373 74.1786M151.866 78.4053C151.006 76.9752 151.422 75.7793 151.373 74.1786M161.914 73.6126C162.113 73.9667 161.582 74.8039 160.737 75.8074M160.737 75.8074C158.918 77.9676 155.639 80.8984 155.039 81.4395C154.775 81.6769 154.458 82.0109 154.11 82.2462M160.737 75.8074C159.529 74.727 157.749 74.4966 156.2 74.9481C154.817 75.3513 152.827 76.9011 151.942 78.5854M160.737 75.8074C160.915 75.967 161.081 76.1451 161.232 76.3423C162.188 77.5919 161.569 79.2222 160.866 80.4395C160 81.9409 158.557 83.2319 156.726 83.1359C155.868 83.0909 154.953 82.7986 154.231 82.3281C154.189 82.301 154.149 82.2738 154.11 82.2462M154.11 82.2462C153.712 82.5153 153.273 82.6555 152.827 82.3753C151.233 81.3735 151.232 79.9362 151.942 78.5854M154.11 82.2462C152.743 81.2898 152.637 80.0278 151.942 78.5854M161.34 73.7787C161.666 74.0211 161.522 75.0018 161.158 76.2626M161.158 76.2626C160.374 78.9765 158.57 82.9879 158.242 83.7268C158.097 84.0509 157.944 84.4851 157.721 84.8418M161.158 76.2626C159.615 75.767 157.896 76.281 156.664 77.3238C155.564 78.2553 154.376 80.4809 154.252 82.3797M161.158 76.2626C161.386 76.3358 161.61 76.431 161.828 76.5497C163.209 77.3023 163.306 79.0436 163.159 80.4415C162.978 82.1656 162.184 83.9325 160.473 84.5898C159.67 84.898 158.716 85.0031 157.865 84.8672C157.816 84.8594 157.768 84.8509 157.721 84.8418M157.721 84.8418C157.467 85.2496 157.123 85.5563 156.602 85.4818C154.738 85.2153 154.153 83.9026 154.252 82.3797M157.721 84.8418C156.084 84.5243 155.474 83.4146 154.252 82.3797" stroke="#4169E1" stroke-width="0.25" stroke-linecap="round"/>
</svg>
