<svg width="26" height="25" viewBox="0 0 26 25" fill="none" xmlns="http://www.w3.org/2000/svg">
<path d="M24.6667 12.5C24.6667 17.9996 24.6667 20.7495 22.9575 22.4575C21.2507 24.1666 18.4997 24.1666 13 24.1666C7.50034 24.1666 4.75051 24.1666 3.04134 22.4575C1.33334 20.7506 1.33334 17.9996 1.33334 12.5C1.33334 7.00031 1.33334 4.25048 3.04134 2.54131C4.75168 0.833313 7.50034 0.833313 13 0.833313" stroke="#4169E1" stroke-width="1.5" stroke-linecap="round"/>
<path d="M1.33334 13.0833L3.37734 11.2948C3.88967 10.8469 4.55305 10.6104 5.23319 10.6331C5.91333 10.6559 6.55942 10.9362 7.04068 11.4173L12.0457 16.4223C12.4341 16.8106 12.947 17.0495 13.4942 17.0969C14.0413 17.1442 14.5877 16.9971 15.037 16.6813L15.3858 16.4363C16.034 15.9811 16.8175 15.7591 17.6081 15.8068C18.3988 15.8545 19.1499 16.169 19.7387 16.6988L23.5 20.0833M16.5 4.91665H20.5833M20.5833 4.91665H24.6667M20.5833 4.91665V8.99998M20.5833 4.91665V0.833313" stroke="#4169E1" stroke-width="1.5" stroke-linecap="round"/>
</svg>
