<svg width="29" height="29" viewBox="0 0 29 29" fill="none" xmlns="http://www.w3.org/2000/svg">
<path d="M21.646 14.4743L21.0302 14.3678L21.646 14.4743ZM21.0581 17.8741L20.4422 17.7676L21.0581 17.8741ZM9.94822 21.3842L9.32555 21.4381L9.94822 21.3842ZM9.27142 13.557L9.8941 13.5032L9.27142 13.557ZM15.8292 8.67118L16.446 8.77224V8.77224L15.8292 8.67118ZM15.277 12.0416L15.8938 12.1427V12.1427L15.277 12.0416ZM9.74853 12.3846L9.34054 11.9111H9.34054L9.74853 12.3846ZM10.9475 11.3514L11.3555 11.8249L10.9475 11.3514ZM12.9318 8.30645L12.3268 8.14952L12.9318 8.30645ZM13.3282 6.77824L13.9332 6.93517V6.93517L13.3282 6.77824ZM14.7231 6.04029L14.5319 6.63534L14.5319 6.63534L14.7231 6.04029ZM14.8439 6.0791L15.035 5.48405L15.035 5.48405L14.8439 6.0791ZM12.385 9.70551L12.9363 9.99999L12.385 9.70551ZM15.754 7.02627L15.149 7.1832L15.149 7.1832L15.754 7.02627ZM13.8952 6.09699L13.6239 5.53395V5.53395L13.8952 6.09699ZM7.47641 22.2123L6.85374 22.2661L7.47641 22.2123ZM6.66675 12.8485L7.28942 12.7947C7.26059 12.4612 6.97419 12.2096 6.6398 12.2241C6.30542 12.2385 6.04175 12.5138 6.04175 12.8485H6.66675ZM21.0302 14.3678L20.4422 17.7676L21.674 17.9806L22.2619 14.5808L21.0302 14.3678ZM15.2042 22.0283H11.3304V23.2783H15.2042V22.0283ZM10.5709 21.3304L9.8941 13.5032L8.64874 13.6108L9.32555 21.4381L10.5709 21.3304ZM20.4422 17.7676C20.0199 20.2098 17.8178 22.0283 15.2042 22.0283V23.2783C18.3928 23.2783 21.1424 21.0542 21.674 17.9806L20.4422 17.7676ZM15.2124 8.57013L14.6602 11.9406L15.8938 12.1427L16.446 8.77224L15.2124 8.57013ZM10.1565 12.858L11.3555 11.8249L10.5395 10.8779L9.34054 11.9111L10.1565 12.858ZM13.5368 8.46338L13.9332 6.93517L12.7232 6.6213L12.3268 8.14952L13.5368 8.46338ZM14.5319 6.63534L14.6527 6.67415L15.035 5.48405L14.9142 5.44524L14.5319 6.63534ZM12.9363 9.99999C13.1963 9.51331 13.3981 8.99783 13.5368 8.46338L12.3268 8.14952C12.2132 8.58756 12.0476 9.01077 11.8338 9.41103L12.9363 9.99999ZM14.6527 6.67415C14.9081 6.75618 15.0894 6.9534 15.149 7.1832L16.359 6.86933C16.1877 6.20932 15.6825 5.69206 15.035 5.48405L14.6527 6.67415ZM13.9332 6.93517C13.9624 6.82267 14.0436 6.71927 14.1666 6.66003L13.6239 5.53395C13.1806 5.74758 12.8476 6.14189 12.7232 6.62131L13.9332 6.93517ZM14.1666 6.66003C14.2789 6.60592 14.411 6.59651 14.5319 6.63534L14.9142 5.44524C14.4895 5.30879 14.0261 5.34016 13.6239 5.53395L14.1666 6.66003ZM15.9615 13.4735H20.2791V12.2235H15.9615V13.4735ZM8.09909 22.1584L7.28942 12.7947L6.04407 12.9023L6.85374 22.2661L8.09909 22.1584ZM7.29175 22.2473V12.8485H6.04175V22.2473H7.29175ZM6.85374 22.2661C6.84274 22.139 6.94296 22.0283 7.07234 22.0283V23.2783C7.67732 23.2783 8.1511 22.7599 8.09909 22.1584L6.85374 22.2661ZM16.446 8.77224C16.5498 8.1388 16.5201 7.49064 16.359 6.86933L15.149 7.1832C15.2665 7.63602 15.2881 8.10844 15.2124 8.57013L16.446 8.77224ZM11.3304 22.0283C10.9354 22.0283 10.6051 21.7258 10.5709 21.3304L9.32555 21.4381C9.41552 22.4785 10.2857 23.2783 11.3304 23.2783V22.0283ZM11.3555 11.8249C11.922 11.3367 12.5327 10.7556 12.9363 9.99999L11.8338 9.41103C11.5451 9.95139 11.0855 10.4074 10.5395 10.8779L11.3555 11.8249ZM22.2619 14.5808C22.4747 13.3504 21.5285 12.2235 20.2791 12.2235V13.4735C20.7513 13.4735 21.1111 13.8999 21.0302 14.3678L22.2619 14.5808ZM7.07234 22.0283C7.19418 22.0283 7.29175 22.127 7.29175 22.2473H6.04175C6.04175 22.816 6.50249 23.2783 7.07234 23.2783V22.0283ZM14.6602 11.9406C14.5287 12.743 15.1472 13.4735 15.9615 13.4735V12.2235C15.9199 12.2235 15.8867 12.1858 15.8938 12.1427L14.6602 11.9406ZM9.8941 13.5032C9.87291 13.2582 9.9707 13.0182 10.1565 12.858L9.34054 11.9111C8.85026 12.3336 8.59299 12.9661 8.64874 13.6108L9.8941 13.5032Z" fill="#4169E1"/>
</svg>
