<svg width="17" height="18" viewBox="0 0 17 18" fill="none" xmlns="http://www.w3.org/2000/svg">
<path d="M10.3022 14.4074L9.70223 15.0074C8.74211 15.9427 7.45225 16.4622 6.11192 16.4534C4.77159 16.4446 3.48865 15.9082 2.54088 14.9605C1.5931 14.0127 1.05675 12.7298 1.04796 11.3894C1.03917 10.0491 1.55864 8.75924 2.4939 7.79911L3.0939 7.19911M6.69807 10.8024L10.3022 7.19828M6.69807 3.59411L7.2989 2.99411C7.76992 2.51056 8.3323 2.12539 8.95338 1.86094C9.57447 1.59649 10.2419 1.45803 10.9169 1.4536C11.5919 1.44917 12.2611 1.57886 12.8856 1.83514C13.5101 2.09142 14.0775 2.46919 14.5548 2.94651C15.0322 3.42384 15.4099 3.99122 15.6662 4.61572C15.9225 5.24022 16.0522 5.9094 16.0477 6.58443C16.0433 7.25945 15.9049 7.92688 15.6404 8.54796C15.376 9.16905 14.9908 9.73142 14.5072 10.2024L13.9072 10.8024" stroke="#4169E1" stroke-width="1.5" stroke-linecap="round"/>
</svg>
