<svg width="22" height="22" viewBox="0 0 22 22" fill="none" xmlns="http://www.w3.org/2000/svg">
<path d="M12.732 20.7704L13.274 19.8544L11.984 19.0904L11.441 20.0064L12.732 20.7704ZM8.726 19.8544L9.268 20.7704L10.558 20.0064L10.017 19.0904L8.726 19.8544ZM11.441 20.0064C11.3943 20.0812 11.3293 20.1429 11.2521 20.1857C11.175 20.2284 11.0882 20.2509 11 20.2509C10.9118 20.2509 10.825 20.2284 10.7479 20.1857C10.6707 20.1429 10.6057 20.0812 10.559 20.0064L9.268 20.7704C10.041 22.0774 11.958 22.0774 12.732 20.7704L11.442 20.0064H11.441ZM9.5 1.7504H12.5V0.250397H9.5V1.7504ZM20.25 9.5004V10.5004H21.75V9.5004H20.25ZM1.75 10.5004V9.5004H0.25V10.5004H1.75ZM0.25 10.5004C0.25 11.6554 0.25 12.5584 0.3 13.2874C0.35 14.0224 0.453 14.6344 0.688 15.2004L2.074 14.6264C1.927 14.2744 1.841 13.8444 1.796 13.1854C1.75 12.5194 1.75 11.6754 1.75 10.5004H0.25ZM6.803 17.2424C5.547 17.2204 4.889 17.1404 4.373 16.9264L3.8 18.3124C4.605 18.6464 5.521 18.7214 6.777 18.7434L6.803 17.2424ZM0.688 15.2004C0.976965 15.8981 1.40052 16.532 1.93448 17.0659C2.46844 17.5999 3.10234 18.0234 3.8 18.3124L4.373 16.9264C3.33168 16.495 2.50535 15.6677 2.074 14.6264L0.688 15.2004ZM20.25 10.5004C20.25 11.6754 20.25 12.5194 20.204 13.1854C20.159 13.8444 20.073 14.2744 19.927 14.6264L21.312 15.2004C21.547 14.6344 21.65 14.0224 21.701 13.2874C21.751 12.5584 21.75 11.6554 21.75 10.5004H20.25ZM15.223 18.7414C16.479 18.7204 17.395 18.6464 18.2 18.3124L17.626 16.9264C17.111 17.1404 16.453 17.2204 15.198 17.2424L15.223 18.7424V18.7414ZM19.927 14.6264C19.4957 15.6677 18.6683 16.495 17.627 16.9264L18.2 18.3124C18.8977 18.0234 19.5316 17.5999 20.0655 17.0659C20.5995 16.532 21.023 15.8981 21.312 15.2004L19.927 14.6264ZM12.5 1.7504C14.151 1.7504 15.337 1.7504 16.262 1.8394C17.176 1.9264 17.757 2.0924 18.221 2.3764L19.004 1.0974C18.265 0.645397 17.427 0.443397 16.404 0.345397C15.392 0.249397 14.122 0.250397 12.5 0.250397V1.7504ZM21.75 9.5004C21.75 7.8784 21.75 6.6094 21.654 5.5964C21.557 4.5734 21.355 3.7344 20.903 2.9964L19.623 3.7794C19.908 4.2434 20.074 4.8244 20.161 5.7394C20.249 6.6634 20.25 7.8494 20.25 9.5004H21.75ZM18.22 2.3764C18.7922 2.72669 19.2733 3.20747 19.624 3.7794L20.903 2.9964C20.4288 2.22237 19.778 1.57163 19.004 1.0974L18.221 2.3774L18.22 2.3764ZM9.5 0.250397C7.878 0.250397 6.609 0.250397 5.596 0.345397C4.573 0.443397 3.734 0.645397 2.996 1.0974L3.779 2.3774C4.243 2.0924 4.824 1.9264 5.739 1.8394C6.663 1.7514 7.849 1.7504 9.5 1.7504V0.250397ZM1.75 9.5004C1.75 7.8494 1.75 6.6634 1.839 5.7384C1.926 4.8244 2.092 4.2434 2.376 3.7794L1.097 2.9974C0.645 3.7354 0.443 4.5734 0.345 5.5964C0.25 6.6104 0.25 7.8784 0.25 9.5004H1.75ZM2.996 1.0974C2.22198 1.57163 1.57123 2.22337 1.097 2.9974L2.377 3.7794C2.72714 3.2077 3.20755 2.72694 3.779 2.3764L2.996 1.0974ZM10.016 19.0904C9.814 18.7474 9.636 18.4444 9.462 18.2064C9.28303 17.9454 9.05054 17.7255 8.78 17.5614L8.026 18.8584C8.073 18.8864 8.138 18.9364 8.25 19.0904C8.371 19.2564 8.508 19.4864 8.726 19.8544L10.016 19.0904ZM6.777 18.7414C7.217 18.7494 7.494 18.7554 7.706 18.7784C7.904 18.8004 7.981 18.8324 8.026 18.8584L8.78 17.5614C8.50001 17.4063 8.19007 17.3129 7.871 17.2874C7.573 17.2544 7.215 17.2494 6.803 17.2424L6.777 18.7434V18.7414ZM13.274 19.8544C13.492 19.4874 13.629 19.2564 13.75 19.0904C13.862 18.9364 13.927 18.8864 13.974 18.8584L13.22 17.5614C12.93 17.7314 12.72 17.9564 12.538 18.2064C12.365 18.4444 12.186 18.7464 11.983 19.0904L13.274 19.8544ZM15.198 17.2424C14.786 17.2494 14.427 17.2544 14.129 17.2874C13.818 17.3224 13.513 17.3914 13.22 17.5614L13.974 18.8584C14.019 18.8324 14.096 18.8004 14.294 18.7784C14.506 18.7554 14.784 18.7484 15.224 18.7414L15.198 17.2414V17.2424Z" fill="#4169E1"/>
<path d="M8 10.0804L10 12.0004L14 8.00043" stroke="#4169E1" stroke-width="1.5" stroke-linecap="round" stroke-linejoin="round"/>
</svg>
