<svg width="13" height="17" viewBox="0 0 13 17" fill="none" xmlns="http://www.w3.org/2000/svg">
<path d="M13 4.5C13 5.69347 12.5259 6.83807 11.682 7.68198C10.8381 8.52589 9.69347 9 8.5 9C7.30653 9 6.16193 8.52589 5.31802 7.68198C4.47411 6.83807 4 5.69347 4 4.5C4 3.30653 4.47411 2.16193 5.31802 1.31802C6.16193 0.474106 7.30653 0 8.5 0C9.69347 0 10.8381 0.474106 11.682 1.31802C12.5259 2.16193 13 3.30653 13 4.5ZM10.854 2.646C10.8076 2.59944 10.7524 2.56249 10.6916 2.53729C10.6309 2.51208 10.5658 2.49911 10.5 2.49911C10.4342 2.49911 10.3691 2.51208 10.3084 2.53729C10.2476 2.56249 10.1924 2.59944 10.146 2.646L7.5 5.293L6.854 4.646C6.80751 4.59951 6.75232 4.56264 6.69158 4.53748C6.63084 4.51232 6.56574 4.49937 6.5 4.49937C6.43426 4.49937 6.36916 4.51232 6.30842 4.53748C6.24768 4.56264 6.19249 4.59951 6.146 4.646C6.09951 4.69249 6.06264 4.74768 6.03748 4.80842C6.01232 4.86916 5.99937 4.93426 5.99937 5C5.99937 5.06574 6.01232 5.13084 6.03748 5.19158C6.06264 5.25232 6.09951 5.30751 6.146 5.354L7.146 6.354C7.19245 6.40056 7.24762 6.43751 7.30837 6.46271C7.36911 6.48792 7.43423 6.50089 7.5 6.50089C7.56577 6.50089 7.63089 6.48792 7.69163 6.46271C7.75238 6.43751 7.80755 6.40056 7.854 6.354L10.854 3.354C10.9006 3.30755 10.9375 3.25238 10.9627 3.19163C10.9879 3.13089 11.0009 3.06577 11.0009 3C11.0009 2.93423 10.9879 2.86911 10.9627 2.80837C10.9375 2.74762 10.9006 2.69245 10.854 2.646ZM4.257 1H1.5C1.10218 1 0.720644 1.15804 0.43934 1.43934C0.158035 1.72064 0 2.10218 0 2.5V15.5C0 15.8978 0.158035 16.2794 0.43934 16.5607C0.720644 16.842 1.10218 17 1.5 17H8.5C8.89782 17 9.27936 16.842 9.56066 16.5607C9.84196 16.2794 10 15.8978 10 15.5V9.793C9.67311 9.88548 9.33834 9.94741 9 9.978V15.5C9 15.6326 8.94732 15.7598 8.85355 15.8536C8.75979 15.9473 8.63261 16 8.5 16H1.5C1.36739 16 1.24021 15.9473 1.14645 15.8536C1.05268 15.7598 1 15.6326 1 15.5V2.5C1 2.36739 1.05268 2.24021 1.14645 2.14645C1.24021 2.05268 1.36739 2 1.5 2H3.6C3.783 1.642 4.004 1.307 4.257 1ZM3 13.5C3 13.3674 3.05268 13.2402 3.14645 13.1464C3.24021 13.0527 3.36739 13 3.5 13H6.5C6.63261 13 6.75979 13.0527 6.85355 13.1464C6.94732 13.2402 7 13.3674 7 13.5C7 13.6326 6.94732 13.7598 6.85355 13.8536C6.75979 13.9473 6.63261 14 6.5 14H3.5C3.36739 14 3.24021 13.9473 3.14645 13.8536C3.05268 13.7598 3 13.6326 3 13.5Z" fill="white"/>
</svg>
