<svg width="15" height="17" viewBox="0 0 15 17" fill="none" xmlns="http://www.w3.org/2000/svg">
<path d="M12.8037 4.70966L12.2146 4.12049C11.0987 3.0044 9.62308 2.32037 8.05025 2.1901C6.47741 2.05984 4.90936 2.49179 3.6251 3.4091C2.34085 4.32642 1.42367 5.6696 1.03676 7.19966C0.649852 8.72972 0.818308 10.3474 1.51216 11.7649C2.206 13.1825 3.38024 14.3079 4.82594 14.9409C6.27164 15.5739 7.89505 15.6736 9.4073 15.222C10.9196 14.7705 12.2226 13.7971 13.0845 12.4751C13.9465 11.153 14.3115 9.56805 14.1146 8.00216M12.8037 4.70966L9.26788 4.71049M12.8037 4.70966V1.17383" stroke="#4169E1" stroke-width="1.25" stroke-linecap="round" stroke-linejoin="round"/>
</svg>
