<svg width="20" height="20" viewBox="0 0 20 20" fill="none" xmlns="http://www.w3.org/2000/svg">
<path d="M5 3.39397C5 2.87301 5.20695 2.37339 5.57533 2.00501C5.9437 1.63664 6.44332 1.42969 6.96429 1.42969H13.0357C13.5567 1.42969 14.0563 1.63664 14.4247 2.00501C14.793 2.37339 15 2.87301 15 3.39397V9.29826C14.6426 9.27494 14.2837 9.28691 13.9286 9.33397V3.39397C13.9286 2.90112 13.5286 2.50112 13.0357 2.50112H6.96429C6.47143 2.50112 6.07143 2.90112 6.07143 3.39397V16.6083C6.07143 17.1011 6.47143 17.5011 6.96429 17.5011H9.65714L9.34286 18.5725H6.96429C6.44332 18.5725 5.9437 18.3656 5.57533 17.9972C5.20695 17.6288 5 17.1292 5 16.6083V3.39397ZM19.2857 14.644C19.2858 15.4518 19.0751 16.2457 18.6744 16.9472C18.2737 17.6487 17.6969 18.2335 17.001 18.6438C16.3051 19.0542 15.5141 19.2758 14.7063 19.2868C13.8986 19.2979 13.1019 19.098 12.395 18.7068L10.4543 19.2718C10.3928 19.2898 10.3277 19.2908 10.2656 19.2749C10.2036 19.2591 10.147 19.2268 10.1017 19.1815C10.0565 19.1362 10.0242 19.0796 10.0083 19.0176C9.99243 18.9556 9.9935 18.8904 10.0114 18.829L10.5793 16.8911C10.2369 16.2711 10.0409 15.5809 10.0063 14.8734C9.97166 14.166 10.0994 13.46 10.3797 12.8095C10.6599 12.159 11.0853 11.5812 11.6233 11.1204C12.1613 10.6597 12.7975 10.3281 13.4834 10.1511C14.1692 9.97408 14.8864 9.95634 15.5802 10.0992C16.2739 10.2421 16.9258 10.5419 17.4859 10.9755C18.046 11.4091 18.4994 11.9651 18.8115 12.601C19.1236 13.2368 19.2853 13.9357 19.2857 14.644ZM12.8571 13.5725C12.7624 13.5725 12.6716 13.6102 12.6046 13.6771C12.5376 13.7441 12.5 13.835 12.5 13.9297C12.5 14.0244 12.5376 14.1152 12.6046 14.1822C12.6716 14.2492 12.7624 14.2868 12.8571 14.2868H16.4286C16.5233 14.2868 16.6141 14.2492 16.6811 14.1822C16.7481 14.1152 16.7857 14.0244 16.7857 13.9297C16.7857 13.835 16.7481 13.7441 16.6811 13.6771C16.6141 13.6102 16.5233 13.5725 16.4286 13.5725H12.8571ZM12.5 15.3583C12.5 15.453 12.5376 15.5438 12.6046 15.6108C12.6716 15.6778 12.7624 15.7154 12.8571 15.7154H14.6429C14.7376 15.7154 14.8284 15.6778 14.8954 15.6108C14.9624 15.5438 15 15.453 15 15.3583C15 15.2635 14.9624 15.1727 14.8954 15.1057C14.8284 15.0387 14.7376 15.0011 14.6429 15.0011H12.8571C12.7624 15.0011 12.6716 15.0387 12.6046 15.1057C12.5376 15.1727 12.5 15.2635 12.5 15.3583Z" fill="white"/>
</svg>
