<svg width="20" height="20" viewBox="0 0 20 20" fill="none" xmlns="http://www.w3.org/2000/svg">
<path d="M8.10409 17.2864L12.9591 14.8582C17.2003 12.7383 19.3209 11.6784 19.3202 9.99898C19.3202 8.32031 17.2003 7.25965 12.9584 5.13903L8.10409 2.71153C4.68169 1.00034 2.96978 0.145444 1.97842 0.408488C1.51494 0.531306 1.09221 0.774589 0.753164 1.11363C0.41412 1.45268 0.170836 1.8754 0.0480181 2.33889C-0.215733 3.33096 0.639866 5.04216 2.35036 8.46526C2.56249 8.88953 2.99736 9.17166 3.47112 9.17449L11.2217 9.21055C11.3285 9.20615 11.435 9.22345 11.5349 9.2614C11.6348 9.29935 11.7259 9.35716 11.8028 9.43135C11.8797 9.50553 11.9407 9.59454 11.9822 9.69299C12.0237 9.79144 12.0448 9.89729 12.0443 10.0041C12.0437 10.111 12.0214 10.2166 11.9789 10.3146C11.9363 10.4126 11.8743 10.5009 11.7966 10.5743C11.719 10.6476 11.6272 10.7045 11.5269 10.7413C11.4266 10.7782 11.3199 10.7944 11.2132 10.7888L3.58921 10.7535C3.3309 10.7563 3.07842 10.8307 2.85985 10.9683C2.64127 11.106 2.46515 11.3016 2.35107 11.5334C0.639867 14.9558 -0.215734 16.6684 0.0466029 17.6605C0.169654 18.124 0.413088 18.5468 0.752227 18.886C1.09137 19.2251 1.51415 19.4685 1.97771 19.5916C2.96978 19.8539 4.68027 18.9976 8.10409 17.2864Z" fill="url(#paint0_radial_323_572)"/>
<defs>
<radialGradient id="paint0_radial_323_572" cx="0" cy="0" r="1" gradientUnits="userSpaceOnUse" gradientTransform="translate(15.3527 17.7449) rotate(-127.444) scale(19.2934 19.3048)">
<stop stop-color="#3454B4"/>
<stop offset="1" stop-color="#4169E1"/>
</radialGradient>
</defs>
</svg>
