<svg width="19" height="19" viewBox="0 0 19 19" fill="none" xmlns="http://www.w3.org/2000/svg">
<path d="M18.1698 10.9884C18.1457 13.8334 17.9882 15.4017 16.9532 16.4359C15.7332 17.6567 13.7682 17.6567 9.83901 17.6567C5.90901 17.6567 3.94484 17.6567 2.72401 16.4359C1.50317 15.215 1.50317 13.2509 1.50317 9.32085C1.50317 5.39169 1.50317 3.42669 2.72401 2.20669C3.75817 1.17169 5.32651 1.01419 8.17151 0.990021" stroke="#4169E1" stroke-width="1.25" stroke-linecap="round"/>
<path d="M18.1696 5.15669H11.503C9.98797 5.15669 9.07547 5.90002 8.7363 6.24002C8.63214 6.34585 8.57964 6.39835 8.57797 6.39835C8.57797 6.40002 8.52547 6.45252 8.41964 6.55669C8.07964 6.89585 7.3363 7.80835 7.3363 9.32335V11.8234M18.1696 5.15669L14.003 0.990021M18.1696 5.15669L14.003 9.32335" stroke="#4169E1" stroke-width="1.25" stroke-linecap="round" stroke-linejoin="round"/>
</svg>
