<svg width="20" height="20" viewBox="0 0 20 20" fill="none" xmlns="http://www.w3.org/2000/svg">
<path d="M1.66699 9.99991H13.3337M13.3337 9.99991L10.417 7.49991M13.3337 9.99991L10.417 12.4999" stroke="white" stroke-width="1.25" stroke-linecap="round" stroke-linejoin="round"/>
<path d="M7.50098 5.83454C7.51098 4.02204 7.59181 3.04038 8.23181 2.40038C8.96431 1.66788 10.1426 1.66788 12.4993 1.66788H13.3326C15.6901 1.66788 16.8685 1.66788 17.601 2.40038C18.3326 3.13204 18.3326 4.31121 18.3326 6.66788V13.3345C18.3326 15.6912 18.3326 16.8704 17.601 17.602C16.8676 18.3345 15.6901 18.3345 13.3326 18.3345H12.4993C10.1426 18.3345 8.96431 18.3345 8.23181 17.602C7.59181 16.962 7.51098 15.9804 7.50098 14.1679" stroke="white" stroke-width="1.25" stroke-linecap="round"/>
</svg>
