<svg width="24" height="24" viewBox="0 0 24 24" fill="none" xmlns="http://www.w3.org/2000/svg">
<path d="M5 22.0004V14.0004M5 14.0004V4.00037M5 14.0004L7.47 13.5064C9.12075 13.176 10.832 13.3331 12.395 13.9584C14.0886 14.6356 15.9525 14.7619 17.722 14.3194L17.936 14.2664C18.2398 14.1905 18.5096 14.0153 18.7024 13.7685C18.8952 13.5217 19 13.2175 19 12.9044V5.53737C18.9999 5.35513 18.9584 5.17531 18.8784 5.01153C18.7985 4.84776 18.6824 4.70434 18.5387 4.59215C18.3951 4.47996 18.2279 4.40195 18.0496 4.36405C17.8714 4.32614 17.6868 4.32933 17.51 4.37337C15.8786 4.781 14.1602 4.66413 12.599 4.03937L12.395 3.95837C10.8322 3.33332 9.12143 3.17628 7.471 3.50637L5 4.00037M5 4.00037V2.00037" stroke="#4169E1" stroke-width="1.5" stroke-linecap="round"/>
</svg>
