<svg width="24" height="24" viewBox="0 0 24 24" fill="none" xmlns="http://www.w3.org/2000/svg">
<g clip-path="url(#clip0_130_3972)">
<path d="M10.0957 19.4284L14.9507 17.0002C19.192 14.8802 21.3126 13.8203 21.3119 12.1409C21.3119 10.4622 19.192 9.40158 14.95 7.28097L10.0957 4.85347C6.67335 3.14227 4.96145 2.28738 3.97008 2.55043C3.5066 2.67324 3.08387 2.91653 2.74483 3.25557C2.40578 3.59461 2.1625 4.01734 2.03968 4.48083C1.77593 5.4729 2.63153 7.1841 4.34202 10.6072C4.61779 11.1573 4.75497 11.4317 4.81225 11.7195C4.8674 11.9981 4.8674 12.2852 4.81225 12.5638C4.75497 12.8516 4.61779 13.1259 4.34273 13.6753C2.63153 17.0977 1.77593 18.8103 2.03827 19.8024C2.16132 20.266 2.40475 20.6888 2.74389 21.0279C3.08303 21.367 3.50581 21.6105 3.96937 21.7335C4.96145 21.9959 6.67194 21.1396 10.0957 19.4284Z" stroke="#4169E1" stroke-width="1.5"/>
<path d="M13.2057 12.8904C13.4024 12.8882 13.5904 12.8087 13.7291 12.6692C13.8678 12.5296 13.9461 12.3411 13.9471 12.1444C13.9481 11.9476 13.8718 11.7583 13.7346 11.6174C13.5973 11.4764 13.4102 11.395 13.2135 11.3907L13.2057 12.8904ZM5.40064 12.8466L13.2057 12.8904L13.2135 11.3907L5.40842 11.3468L5.40135 12.8473L5.40064 12.8466Z" fill="#4169E1"/>
</g>
<defs>
<clipPath id="clip0_130_3972">
<rect width="24" height="24" fill="white" transform="translate(0 0.000396729)"/>
</clipPath>
</defs>
</svg>
