<svg width="24" height="24" viewBox="0 0 24 24" fill="none" xmlns="http://www.w3.org/2000/svg">
<path d="M4 22.0004H20" stroke="#4169E1" stroke-width="1.5" stroke-linecap="round"/>
<path d="M18.3371 8.11139L19.0791 7.37139C19.3713 7.07927 19.603 6.73245 19.7612 6.35075C19.9194 5.96904 20.0008 5.55992 20.0008 5.14675C20.0009 4.73357 19.9195 4.32444 19.7615 3.94269C19.6034 3.56095 19.3717 3.21408 19.0796 2.92189C18.7874 2.6297 18.4406 2.39791 18.0589 2.23975C17.6772 2.0816 17.2681 2.00017 16.8549 2.00012C16.4417 2.00008 16.0326 2.08141 15.6509 2.23948C15.2691 2.39755 14.9223 2.62927 14.6301 2.92139L13.8881 3.66339C13.8881 3.66339 13.9811 5.23939 15.3711 6.62939C16.7611 8.01939 18.3371 8.11239 18.3371 8.11239L11.5201 14.9294C11.0581 15.3914 10.8281 15.6214 10.5731 15.8204C10.2731 16.0544 9.94806 16.2554 9.60406 16.4194C9.31306 16.5584 9.00306 16.6614 8.38406 16.8674L5.75806 17.7434M13.8881 3.66239L7.07106 10.4804C6.60906 10.9424 6.37806 11.1724 6.18006 11.4274C5.94577 11.7277 5.74492 12.0526 5.58106 12.3964C5.44206 12.6874 5.33906 12.9974 5.13206 13.6164L4.25706 16.2424M4.25706 16.2424L4.04406 16.8834C3.99413 17.0329 3.98683 17.1933 4.02299 17.3466C4.05914 17.5 4.13731 17.6403 4.24874 17.7517C4.36016 17.8631 4.50043 17.9413 4.65381 17.9775C4.80719 18.0136 4.9676 18.0063 5.11706 17.9564L5.75806 17.7434M4.25706 16.2424L5.75806 17.7434" stroke="#4169E1" stroke-width="1.5"/>
</svg>
