<svg width="28" height="29" viewBox="0 0 28 29" fill="none" xmlns="http://www.w3.org/2000/svg">
<path d="M14.0016 19.1652C15.9344 19.1652 17.5013 17.5982 17.5013 15.6652C17.5013 13.7322 15.9344 12.1652 14.0016 12.1652C12.0688 12.1652 10.5019 13.7322 10.5019 15.6652C10.5019 17.5982 12.0688 19.1652 14.0016 19.1652Z" stroke="#4169E1" stroke-width="1.5"/>
<path d="M11.4099 25.0026H16.5946C20.2358 25.0026 22.0569 25.0026 23.3648 24.1451C23.9291 23.7752 24.4151 23.2979 24.7951 22.7404C25.6689 21.4571 25.6689 19.6686 25.6689 16.0939C25.6689 12.5181 25.6689 10.7307 24.7951 9.44739C24.4151 8.88985 23.9291 8.41256 23.3648 8.04272C22.5248 7.49089 21.4724 7.29372 19.8613 7.22372C19.0924 7.22372 18.4309 6.65206 18.2804 5.91122C18.1654 5.36857 17.8666 4.88227 17.4344 4.5345C17.0023 4.18673 16.4633 3.99883 15.9086 4.00256H12.0959C10.9433 4.00256 9.95043 4.80172 9.7241 5.91122C9.5736 6.65206 8.9121 7.22372 8.14327 7.22372C6.53327 7.29372 5.48093 7.49206 4.63977 8.04272C4.07582 8.41263 3.5902 8.88993 3.2106 9.44739C2.3356 10.7307 2.3356 12.5181 2.3356 16.0939C2.3356 19.6686 2.3356 21.4559 3.20944 22.7404C3.58744 23.2957 4.07277 23.7729 4.63977 24.1451C5.9476 25.0026 7.76877 25.0026 11.4099 25.0026Z" stroke="#4169E1" stroke-width="1.5"/>
<path d="M22.1704 12.1652H21.0039" stroke="#4169E1" stroke-width="1.5" stroke-linecap="round"/>
</svg>
