<svg width="20" height="20" viewBox="0 0 20 20" fill="none" xmlns="http://www.w3.org/2000/svg">
<path d="M11.6667 15.8333C11.6667 14.9129 10.9205 14.1667 10 14.1667C9.07957 14.1667 8.33337 14.9129 8.33337 15.8333C8.33337 16.7538 9.07957 17.5 10 17.5C10.9205 17.5 11.6667 16.7538 11.6667 15.8333Z" stroke="#4169E1"/>
<path d="M11.6667 10C11.6667 9.07955 10.9205 8.33335 10 8.33335C9.07957 8.33335 8.33337 9.07955 8.33337 10C8.33337 10.9205 9.07957 11.6667 10 11.6667C10.9205 11.6667 11.6667 10.9205 11.6667 10Z" stroke="#4169E1"/>
<path d="M11.6667 4.16665C11.6667 3.24617 10.9205 2.49998 10 2.49998C9.07957 2.49998 8.33337 3.24617 8.33337 4.16665C8.33337 5.08712 9.07957 5.83331 10 5.83331C10.9205 5.83331 11.6667 5.08712 11.6667 4.16665Z" stroke="#4169E1"/>
</svg>
