<svg width="29" height="29" viewBox="0 0 29 29" fill="none" xmlns="http://www.w3.org/2000/svg">
<path d="M16.111 23.4082L16.6152 22.5561L15.4152 21.8454L14.9101 22.6975L16.111 23.4082ZM12.3846 22.5561L12.8887 23.4082L14.0887 22.6975L13.5855 21.8454L12.3846 22.5561ZM14.9101 22.6975C14.8666 22.7671 14.8062 22.8244 14.7344 22.8642C14.6626 22.904 14.5819 22.9249 14.4999 22.9249C14.4178 22.9249 14.3371 22.904 14.2654 22.8642C14.1936 22.8244 14.1331 22.7671 14.0897 22.6975L12.8887 23.4082C13.6078 24.624 15.391 24.624 16.111 23.4082L14.911 22.6975H14.9101ZM13.1046 5.71534H15.8952V4.32001H13.1046V5.71534ZM23.1044 12.9246V13.8548H24.4998V12.9246H23.1044ZM5.89533 13.8548V12.9246H4.5V13.8548H5.89533ZM4.5 13.8548C4.5 14.9292 4.5 15.7692 4.54651 16.4473C4.59302 17.131 4.68883 17.7003 4.90744 18.2268L6.19672 17.6929C6.05998 17.3654 5.97998 16.9654 5.93812 16.3524C5.89533 15.7329 5.89533 14.9478 5.89533 13.8548H4.5ZM10.5957 20.1263C9.42738 20.1059 8.8153 20.0315 8.3353 19.8324L7.80229 21.1217C8.55112 21.4324 9.4032 21.5021 10.5716 21.5226L10.5957 20.1263ZM4.90744 18.2268C5.17624 18.8758 5.57024 19.4655 6.06694 19.9622C6.56364 20.4589 7.15331 20.8529 7.80229 21.1217L8.3353 19.8324C7.36664 19.4311 6.59797 18.6615 6.19672 17.6929L4.90744 18.2268ZM23.1044 13.8548C23.1044 14.9478 23.1044 15.7329 23.0616 16.3524C23.0198 16.9654 22.9398 17.3654 22.804 17.6929L24.0923 18.2268C24.3109 17.7003 24.4067 17.131 24.4542 16.4473C24.5007 15.7692 24.4998 14.9292 24.4998 13.8548H23.1044ZM18.4282 21.5207C19.5966 21.5012 20.4487 21.4324 21.1975 21.1217L20.6635 19.8324C20.1845 20.0315 19.5724 20.1059 18.405 20.1263L18.4282 21.5217V21.5207ZM22.804 17.6929C22.4027 18.6615 21.6331 19.4311 20.6645 19.8324L21.1975 21.1217C21.8465 20.8529 22.4361 20.4589 22.9328 19.9622C23.4295 19.4655 23.8235 18.8758 24.0923 18.2268L22.804 17.6929ZM15.8952 5.71534C17.431 5.71534 18.5343 5.71534 19.3947 5.79813C20.2449 5.87906 20.7854 6.03348 21.217 6.29766L21.9454 5.10791C21.2579 4.68745 20.4784 4.49954 19.5268 4.40838C18.5854 4.31908 17.404 4.32001 15.8952 4.32001V5.71534ZM24.4998 12.9246C24.4998 11.4157 24.4998 10.2353 24.4105 9.29297C24.3202 8.34136 24.1323 7.5609 23.7119 6.8744L22.5212 7.60276C22.7863 8.03438 22.9407 8.57484 23.0216 9.42599C23.1035 10.2855 23.1044 11.3888 23.1044 12.9246H24.4998ZM21.2161 6.29766C21.7483 6.62351 22.1959 7.07074 22.5221 7.60276L23.7119 6.8744C23.2707 6.15438 22.6654 5.54904 21.9454 5.10791L21.217 6.29859L21.2161 6.29766ZM13.1046 4.32001C11.5957 4.32001 10.4153 4.32001 9.47297 4.40838C8.52135 4.49954 7.74089 4.68745 7.05439 5.10791L7.78275 6.29859C8.21438 6.03348 8.75483 5.87906 9.60599 5.79813C10.4655 5.71627 11.5688 5.71534 13.1046 5.71534V4.32001ZM5.89533 12.9246C5.89533 11.3888 5.89533 10.2855 5.97812 9.42506C6.05905 8.57484 6.21347 8.03438 6.47765 7.60276L5.2879 6.87533C4.86744 7.56183 4.67953 8.34136 4.58837 9.29297C4.5 10.2362 4.5 11.4157 4.5 12.9246H5.89533ZM7.05439 5.10791C6.33438 5.54904 5.72904 6.15531 5.2879 6.87533L6.47858 7.60276C6.80429 7.07095 7.25118 6.62374 7.78275 6.29766L7.05439 5.10791ZM13.5845 21.8454C13.3966 21.5263 13.2311 21.2445 13.0692 21.0231C12.9027 20.7803 12.6865 20.5758 12.4348 20.4231L11.7334 21.6296C11.7771 21.6556 11.8376 21.7021 11.9418 21.8454C12.0543 21.9998 12.1818 22.2138 12.3846 22.5561L13.5845 21.8454ZM10.5716 21.5207C10.9809 21.5282 11.2385 21.5338 11.4357 21.5552C11.6199 21.5756 11.6915 21.6054 11.7334 21.6296L12.4348 20.4231C12.1743 20.2788 11.886 20.1919 11.5892 20.1682C11.312 20.1375 10.979 20.1328 10.5957 20.1263L10.5716 21.5226V21.5207ZM16.6152 22.5561C16.818 22.2147 16.9454 21.9998 17.058 21.8454C17.1622 21.7021 17.2226 21.6556 17.2664 21.6296L16.565 20.4231C16.2952 20.5812 16.0999 20.7905 15.9306 21.0231C15.7696 21.2445 15.6031 21.5254 15.4143 21.8454L16.6152 22.5561ZM18.405 20.1263C18.0217 20.1328 17.6878 20.1375 17.4105 20.1682C17.1212 20.2008 16.8375 20.2649 16.565 20.4231L17.2664 21.6296C17.3082 21.6054 17.3798 21.5756 17.564 21.5552C17.7612 21.5338 18.0198 21.5272 18.4291 21.5207L18.405 20.1254V20.1263Z" fill="#4169E1"/>
</svg>
