<svg width="24" height="25" viewBox="0 0 24 25" fill="none" xmlns="http://www.w3.org/2000/svg">
<path d="M22 12.5C22 17.214 22 19.571 20.535 21.035C19.072 22.5 16.714 22.5 12 22.5C7.286 22.5 4.929 22.5 3.464 21.035C2 19.572 2 17.214 2 12.5C2 7.786 2 5.429 3.464 3.964C4.93 2.5 7.286 2.5 12 2.5" stroke="white" stroke-width="1.5" stroke-linecap="round"/>
<path d="M2 13L3.752 11.467C4.19114 11.0831 4.75974 10.8804 5.34272 10.8998C5.9257 10.9193 6.47949 11.1596 6.892 11.572L11.182 15.862C11.5149 16.1949 11.9546 16.3996 12.4235 16.4402C12.8925 16.4808 13.3608 16.3547 13.746 16.084L14.045 15.874C14.6006 15.4838 15.2721 15.2936 15.9498 15.3345C16.6275 15.3753 17.2713 15.6449 17.776 16.099L21 19" stroke="white" stroke-width="1.5" stroke-linecap="round"/>
<path d="M18.5624 3.43706L18.9794 3.02006C19.3126 2.69428 19.7608 2.51304 20.2268 2.51565C20.6928 2.51827 21.1389 2.70454 21.4684 3.03405C21.7979 3.36355 21.9842 3.8097 21.9868 4.27568C21.9894 4.74166 21.8082 5.18988 21.4824 5.52306L21.0654 5.94006M18.5624 3.43706C18.5624 3.43706 18.6144 4.32406 19.3964 5.10606C20.1784 5.88806 21.0654 5.94006 21.0654 5.94006M18.5624 3.43706L14.7274 7.27206C14.4674 7.53206 14.3374 7.66206 14.2274 7.80506C14.0953 7.9739 13.9819 8.15665 13.8894 8.35006C13.8114 8.51406 13.7534 8.68806 13.6374 9.03606L13.2654 10.1521M21.0654 5.94006L17.2304 9.77506C16.9704 10.0351 16.8404 10.1651 16.6974 10.2751C16.5286 10.4072 16.3458 10.5206 16.1524 10.6131C15.9884 10.6911 15.8144 10.7491 15.4664 10.8651L14.3504 11.2371M13.2654 10.1521L13.0244 10.8741C12.9964 10.9581 12.9924 11.0484 13.0128 11.1346C13.0332 11.2208 13.0773 11.2997 13.14 11.3623C13.2027 11.4249 13.2816 11.4688 13.3679 11.4891C13.4542 11.5094 13.5444 11.5052 13.6284 11.4771L14.3504 11.2371M13.2654 10.1521L14.3504 11.2371" stroke="white" stroke-width="1.5"/>
</svg>
