
<svg width="16" height="16" viewBox="0 0 16 16" fill="none" xmlns="http://www.w3.org/2000/svg">
    <g id="tabler:at">
        <g id="Group">
            <path id="Vector" d="M5.33325 7.99992C5.33325 8.70716 5.6142 9.38544 6.1143 9.88554C6.6144 10.3856 7.29267 10.6666 7.99992 10.6666C8.70716 10.6666 9.38544 10.3856 9.88554 9.88554C10.3856 9.38544 10.6666 8.70716 10.6666 7.99992C10.6666 7.29267 10.3856 6.6144 9.88554 6.1143C9.38544 5.6142 8.70716 5.33325 7.99992 5.33325C7.29267 5.33325 6.6144 5.6142 6.1143 6.1143C5.6142 6.6144 5.33325 7.29267 5.33325 7.99992Z" stroke="#4169E1" stroke-width="1.33333" stroke-linecap="round" stroke-linejoin="round"/>
            <path id="Vector_2" d="M10.6667 7.9999V8.9999C10.6667 9.44193 10.8423 9.86585 11.1548 10.1784C11.4674 10.491 11.8913 10.6666 12.3333 10.6666C12.7754 10.6666 13.1993 10.491 13.5118 10.1784C13.8244 9.86585 14 9.44193 14 8.9999V7.9999C14.0017 6.71063 13.588 5.45513 12.8203 4.41936C12.0525 3.38359 10.9716 2.62267 9.73759 2.2493C8.50357 1.87593 7.18211 1.90998 5.96896 2.34641C4.7558 2.78283 3.7155 3.59842 3.00214 4.67235C2.28878 5.74628 1.94031 7.02143 2.00837 8.30889C2.07642 9.59636 2.55737 10.8277 3.37997 11.8204C4.20257 12.8132 5.32306 13.5145 6.57546 13.8206C7.82786 14.1267 9.14555 14.0213 10.3333 13.5199" stroke="#4169E1" stroke-width="1.33333" stroke-linecap="round" stroke-linejoin="round"/>
        </g>
    </g>
</svg>
