<svg width="14" height="16" viewBox="0 0 14 16" fill="none" xmlns="http://www.w3.org/2000/svg">
<path d="M12.9834 8.12338L12.2444 7.99557V7.99557L12.9834 8.12338ZM12.5131 10.8432L11.7741 10.7154V10.7154L12.5131 10.8432ZM3.62518 13.6513L2.87797 13.7159L3.62518 13.6513ZM3.08374 7.38952L3.83095 7.32491L3.08374 7.38952ZM8.32997 3.48087L9.0701 3.60213V3.60213L8.32997 3.48087ZM7.88818 6.17724L8.62832 6.2985V6.2985L7.88818 6.17724ZM3.46543 6.45158L2.97584 5.88342L2.97584 5.88342L3.46543 6.45158ZM4.42459 5.62505L4.91418 6.1932L4.91418 6.1932L4.42459 5.62505ZM6.01204 3.18908L5.28606 3.00076V3.00076L6.01204 3.18908ZM6.32917 1.96651L7.05515 2.15483L7.05515 2.15483L6.32917 1.96651ZM7.44506 1.37615L7.21567 2.09021L7.21567 2.09021L7.44506 1.37615ZM7.54171 1.4072L7.7711 0.693143L7.7711 0.693143L7.54171 1.4072ZM5.57463 4.30833L6.23617 4.6617L5.57463 4.30833ZM8.26979 2.16494L7.54381 2.35325V2.35326L8.26979 2.16494ZM6.7828 1.42151L6.45722 0.745867V0.745867L6.7828 1.42151ZM1.64773 14.3137L0.90052 14.3783H0.90052L1.64773 14.3137ZM1 6.82272L1.74721 6.75811C1.71261 6.35796 1.36893 6.0561 0.967665 6.07342C0.566401 6.09073 0.25 6.42108 0.25 6.82272H1ZM12.2444 7.99557L11.7741 10.7154L13.2521 10.971L13.7225 8.25118L12.2444 7.99557ZM7.82998 13.9166H4.7309V15.4166H7.82998V13.9166ZM4.37239 13.5867L3.83095 7.32491L2.33653 7.45413L2.87797 13.7159L4.37239 13.5867ZM11.7741 10.7154C11.458 12.5429 9.80586 13.9166 7.82998 13.9166V15.4166C10.4958 15.4166 12.805 13.5562 13.2521 10.971L11.7741 10.7154ZM7.58984 3.3596L7.14805 6.05597L8.62832 6.2985L9.0701 3.60213L7.58984 3.3596ZM3.95502 7.01973L4.91418 6.1932L3.93499 5.05689L2.97584 5.88342L3.95502 7.01973ZM6.73801 3.3774L7.05515 2.15483L5.6032 1.77819L5.28606 3.00076L6.73801 3.3774ZM7.21567 2.09021L7.31232 2.12126L7.7711 0.693143L7.67445 0.662096L7.21567 2.09021ZM6.23617 4.6617C6.45337 4.25508 6.6221 3.82424 6.73801 3.3774L5.28606 3.00076C5.20016 3.33191 5.07492 3.65203 4.9131 3.95495L6.23617 4.6617ZM7.31232 2.12126C7.43817 2.16169 7.51845 2.25546 7.54381 2.35325L8.99576 1.97662C8.83647 1.36256 8.36754 0.884748 7.7711 0.693143L7.31232 2.12126ZM7.05515 2.15483C7.05946 2.13821 7.07411 2.11368 7.10838 2.09716L6.45722 0.745867C6.03849 0.947642 5.72173 1.32127 5.6032 1.77819L7.05515 2.15483ZM7.10838 2.09716C7.14023 2.08181 7.17975 2.07867 7.21567 2.09021L7.67445 0.662096C7.27386 0.533404 6.83692 0.562899 6.45722 0.745867L7.10838 2.09716ZM8.43579 7.57272H11.8899V6.07272H8.43579V7.57272ZM2.39494 14.2491L1.74721 6.75811L0.252788 6.88733L0.90052 14.3783L2.39494 14.2491ZM1.75 14.3417V6.82272H0.25V14.3417H1.75ZM0.90052 14.3783C0.879126 14.1309 1.0741 13.9166 1.32447 13.9166V15.4166C1.95533 15.4166 2.44915 14.876 2.39494 14.2491L0.90052 14.3783ZM9.0701 3.60213C9.15875 3.06103 9.13344 2.50735 8.99576 1.97662L7.54381 2.35326C7.62905 2.68182 7.64472 3.0246 7.58984 3.3596L9.0701 3.60213ZM4.7309 13.9166C4.54491 13.9166 4.38859 13.774 4.37239 13.5867L2.87797 13.7159C2.9611 14.6773 3.76517 15.4166 4.7309 15.4166V13.9166ZM4.91418 6.1932C5.37152 5.7991 5.89029 5.3092 6.23617 4.6617L4.9131 3.95495C4.70518 4.3442 4.3677 4.68402 3.93499 5.05689L4.91418 6.1932ZM13.7225 8.25118C13.9191 7.11436 13.0448 6.07272 11.8899 6.07272V7.57272C12.1122 7.57272 12.2828 7.77375 12.2444 7.99557L13.7225 8.25118ZM1.32447 13.9166C1.56029 13.9166 1.75 14.1077 1.75 14.3417H0.25C0.25 14.9346 0.730255 15.4166 1.32447 15.4166V13.9166ZM7.14805 6.05597C7.018 6.84972 7.62984 7.57272 8.43579 7.57272V6.07272C8.55708 6.07272 8.64754 6.18116 8.62832 6.2985L7.14805 6.05597ZM3.83095 7.32491C3.82092 7.20889 3.86725 7.09536 3.95502 7.01973L2.97584 5.88342C2.52272 6.27388 2.28501 6.85836 2.33653 7.45413L3.83095 7.32491Z" fill="#4169E1"/>
</svg>
