<svg width="32" height="32" viewBox="0 0 32 32" fill="none" xmlns="http://www.w3.org/2000/svg">
<path d="M15.9998 13.3334C18.9454 13.3334 21.3332 10.9456 21.3332 8.00008C21.3332 5.05456 18.9454 2.66675 15.9998 2.66675C13.0543 2.66675 10.6665 5.05456 10.6665 8.00008C10.6665 10.9456 13.0543 13.3334 15.9998 13.3334Z" stroke="#ACB1B3" stroke-width="1.5"/>
<path d="M19.9999 17.7693C18.6869 17.4757 17.3453 17.3295 15.9999 17.3333C10.1093 17.3333 5.33325 20.02 5.33325 23.3333C5.33325 26.6467 5.33325 29.3333 15.9999 29.3333C23.5826 29.3333 25.7746 27.976 26.4092 26" stroke="#ACB1B3" stroke-width="1.5"/>
<path d="M23.9998 26.6667C26.9454 26.6667 29.3332 24.2789 29.3332 21.3333C29.3332 18.3878 26.9454 16 23.9998 16C21.0543 16 18.6665 18.3878 18.6665 21.3333C18.6665 24.2789 21.0543 26.6667 23.9998 26.6667Z" stroke="#ACB1B3" stroke-width="1.5"/>
<path d="M22.2212 19.5562L25.7772 23.1108M25.7772 19.5562L22.2225 23.1108" stroke="#ACB1B3" stroke-width="1.5" stroke-linecap="round" stroke-linejoin="round"/>
</svg>
