<svg width="20" height="21" viewBox="0 0 20 21" fill="none" xmlns="http://www.w3.org/2000/svg">
<path d="M10 13C11.3807 13 12.5 11.8807 12.5 10.5C12.5 9.11929 11.3807 8 10 8C8.61929 8 7.5 9.11929 7.5 10.5C7.5 11.8807 8.61929 13 10 13Z" stroke="#4169E1" stroke-width="1.25"/>
<path d="M11.4712 2.29464C11.1654 2.16797 10.777 2.16797 10.0004 2.16797C9.22371 2.16797 8.83538 2.16797 8.52954 2.29464C8.32719 2.3784 8.14334 2.50122 7.98848 2.65607C7.83362 2.81093 7.7108 2.99479 7.62704 3.19714C7.55038 3.38297 7.51954 3.60047 7.50788 3.9163C7.50268 4.14463 7.43954 4.36789 7.32439 4.56511C7.20923 4.76234 7.04583 4.92706 6.84954 5.0438C6.65029 5.1555 6.42591 5.21472 6.19749 5.21589C5.96906 5.21705 5.74409 5.16013 5.54371 5.05047C5.26371 4.90214 5.06121 4.82047 4.86038 4.7938C4.42231 4.73619 3.97929 4.85489 3.62871 5.1238C3.36704 5.3263 3.17204 5.66214 2.78371 6.33464C2.39538 7.00714 2.20038 7.34297 2.15788 7.67213C2.12924 7.88918 2.14364 8.10974 2.20026 8.32121C2.25689 8.53269 2.35462 8.73094 2.48788 8.90463C2.61121 9.06463 2.78371 9.1988 3.05121 9.36714C3.44538 9.61464 3.69871 10.0363 3.69871 10.5013C3.69871 10.9663 3.44538 11.388 3.05121 11.6346C2.78371 11.8038 2.61038 11.938 2.48788 12.098C2.35462 12.2717 2.25689 12.4699 2.20026 12.6814C2.14364 12.8929 2.12924 13.1134 2.15788 13.3305C2.20121 13.6588 2.39538 13.9955 2.78288 14.668C3.17204 15.3405 3.36621 15.6763 3.62871 15.8788C3.80241 16.0121 4.00065 16.1098 4.21213 16.1664C4.42361 16.223 4.64417 16.2374 4.86121 16.2088C5.06121 16.1821 5.26371 16.1005 5.54371 15.9521C5.74409 15.8425 5.96906 15.7856 6.19749 15.7867C6.42591 15.7879 6.65029 15.8471 6.84954 15.9588C7.25204 16.1921 7.49121 16.6213 7.50788 17.0863C7.51954 17.403 7.54954 17.6196 7.62704 17.8055C7.7108 18.0078 7.83362 18.1917 7.98848 18.3465C8.14334 18.5014 8.32719 18.6242 8.52954 18.708C8.83538 18.8346 9.22371 18.8346 10.0004 18.8346C10.777 18.8346 11.1654 18.8346 11.4712 18.708C11.6736 18.6242 11.8574 18.5014 12.0123 18.3465C12.1671 18.1917 12.2899 18.0078 12.3737 17.8055C12.4504 17.6196 12.4812 17.403 12.4929 17.0863C12.5095 16.6213 12.7487 16.1913 13.1512 15.9588C13.3505 15.8471 13.5748 15.7879 13.8033 15.7867C14.0317 15.7856 14.2567 15.8425 14.457 15.9521C14.737 16.1005 14.9395 16.1821 15.1395 16.2088C15.3566 16.2374 15.5771 16.223 15.7886 16.1664C16.0001 16.1098 16.1983 16.0121 16.372 15.8788C16.6345 15.6771 16.8287 15.3405 17.217 14.668C17.6054 13.9955 17.8004 13.6596 17.8429 13.3305C17.8715 13.1134 17.8571 12.8929 17.8005 12.6814C17.7439 12.4699 17.6461 12.2717 17.5129 12.098C17.3895 11.938 17.217 11.8038 16.9495 11.6355C16.7543 11.5168 16.5925 11.3505 16.4792 11.1521C16.3659 10.9537 16.305 10.7297 16.302 10.5013C16.302 10.0363 16.5554 9.61464 16.9495 9.36797C17.217 9.1988 17.3904 9.06463 17.5129 8.90463C17.6461 8.73094 17.7439 8.53269 17.8005 8.32121C17.8571 8.10974 17.8715 7.88918 17.8429 7.67213C17.7995 7.3438 17.6054 7.00714 17.2179 6.33464C16.8287 5.66214 16.6345 5.3263 16.372 5.1238C16.1983 4.99054 16.0001 4.89281 15.7886 4.83619C15.5771 4.77957 15.3566 4.76516 15.1395 4.7938C14.9395 4.82047 14.737 4.90214 14.4562 5.05047C14.2559 5.15998 14.0311 5.21682 13.8028 5.21566C13.5746 5.21449 13.3504 5.15536 13.1512 5.0438C12.9549 4.92706 12.7915 4.76234 12.6764 4.56511C12.5612 4.36789 12.4981 4.14463 12.4929 3.9163C12.4812 3.59964 12.4512 3.38297 12.3737 3.19714C12.2899 2.99479 12.1671 2.81093 12.0123 2.65607C11.8574 2.50122 11.6736 2.3784 11.4712 2.29464Z" stroke="#4169E1" stroke-width="1.25"/>
</svg>
