<svg width="16" height="16" viewBox="0 0 16 16" fill="none" xmlns="http://www.w3.org/2000/svg">
<g clip-path="url(#clip0_382_2802)">
<path d="M7.99992 14.6666C11.6819 14.6666 14.6666 11.6819 14.6666 7.99992C14.6666 4.31792 11.6819 1.33325 7.99992 1.33325C4.31792 1.33325 1.33325 4.31792 1.33325 7.99992C1.33325 9.06659 1.58392 10.0746 2.02859 10.9686C2.14725 11.2059 2.18659 11.4773 2.11792 11.7339L1.72125 13.2179C1.68211 13.3647 1.68226 13.5193 1.72168 13.666C1.7611 13.8127 1.8384 13.9466 1.94585 14.054C2.05329 14.1614 2.18709 14.2387 2.33383 14.2782C2.48057 14.3176 2.6351 14.3177 2.78192 14.2786L4.26592 13.8819C4.52352 13.8171 4.79594 13.8486 5.03192 13.9706C5.95387 14.4297 6.96999 14.668 7.99992 14.6666Z" stroke="#4169E1" stroke-width="1.5"/>
</g>
<defs>
<clipPath id="clip0_382_2802">
<rect width="16" height="16" fill="white"/>
</clipPath>
</defs>
</svg>
