<svg width="20" height="21" viewBox="0 0 20 21" fill="none" xmlns="http://www.w3.org/2000/svg">
<path d="M10.0003 18.8346C14.6027 18.8346 18.3337 15.1037 18.3337 10.5013C18.3337 5.89893 14.6027 2.16797 10.0003 2.16797C5.39795 2.16797 1.66699 5.89893 1.66699 10.5013C1.66699 15.1037 5.39795 18.8346 10.0003 18.8346Z" stroke="#4169E1" stroke-width="1.25"/>
<path d="M8.4375 7.89823C8.43754 7.6246 8.50943 7.35577 8.64599 7.11865C8.78255 6.88153 8.97899 6.68443 9.21565 6.54707C9.45231 6.40971 9.72089 6.33691 9.99452 6.33595C10.2682 6.33499 10.5372 6.4059 10.7749 6.5416C11.0125 6.6773 11.2103 6.87302 11.3485 7.10917C11.4867 7.34533 11.5605 7.61365 11.5625 7.88727C11.5644 8.1609 11.4945 8.43024 11.3596 8.66835C11.2248 8.90646 11.0298 9.10498 10.7942 9.24406C10.3983 9.47823 10 9.83406 10 10.2941V11.3357" stroke="#4169E1" stroke-width="1.25" stroke-linecap="round"/>
<path d="M10.0003 14.6667C10.4606 14.6667 10.8337 14.2936 10.8337 13.8333C10.8337 13.3731 10.4606 13 10.0003 13C9.54009 13 9.16699 13.3731 9.16699 13.8333C9.16699 14.2936 9.54009 14.6667 10.0003 14.6667Z" fill="#4169E1"/>
</svg>
