<svg width="12" height="12" viewBox="0 0 12 12" fill="none" xmlns="http://www.w3.org/2000/svg">
<g id="solar:trash-bin-trash-outline">
<g id="Group">
<path id="Vector" fill-rule="evenodd" clip-rule="evenodd" d="M5.155 1.125H6.845C6.9535 1.125 7.048 1.125 7.137 1.139C7.31036 1.16677 7.47481 1.23473 7.61719 1.33744C7.75958 1.44015 7.87595 1.57476 7.957 1.7305C7.999 1.8105 8.0285 1.9 8.063 2.0025L8.1185 2.17C8.15679 2.30608 8.24008 2.42516 8.35478 2.5078C8.46947 2.59044 8.6088 2.63175 8.75 2.625H10.25C10.3495 2.625 10.4448 2.66451 10.5152 2.73483C10.5855 2.80516 10.625 2.90054 10.625 3C10.625 3.09946 10.5855 3.19484 10.5152 3.26517C10.4448 3.33549 10.3495 3.375 10.25 3.375H1.75C1.65054 3.375 1.55516 3.33549 1.48483 3.26517C1.41451 3.19484 1.375 3.09946 1.375 3C1.375 2.90054 1.41451 2.80516 1.48483 2.73483C1.55516 2.66451 1.65054 2.625 1.75 2.625H3.295C3.42855 2.6218 3.55756 2.57589 3.66311 2.494C3.76867 2.41212 3.8452 2.29856 3.8815 2.17L3.9375 2.0025C3.9715 1.9 4.001 1.8105 4.0425 1.7305C4.1236 1.5747 4.24005 1.44005 4.38253 1.33734C4.525 1.23462 4.68955 1.1667 4.863 1.139C4.952 1.125 5.0465 1.125 5.1545 1.125H5.155ZM4.504 2.625C4.53911 2.55624 4.56838 2.48466 4.5915 2.411L4.6415 2.261C4.687 2.1245 4.6975 2.097 4.708 2.077C4.73499 2.025 4.77379 1.98006 4.82129 1.94576C4.86878 1.91146 4.92365 1.88877 4.9815 1.8795C5.04668 1.87399 5.11214 1.87249 5.1775 1.875H6.8225C6.9665 1.875 6.9965 1.876 7.0185 1.88C7.0763 1.88922 7.13114 1.91183 7.17863 1.94604C7.22612 1.98025 7.26495 2.0251 7.292 2.077C7.3025 2.097 7.313 2.1245 7.3585 2.2615L7.4085 2.4115L7.428 2.4675C7.4475 2.5225 7.4705 2.5745 7.496 2.625H4.504Z" fill="white"/>
<path id="Vector_2" d="M2.95753 4.22496C2.9509 4.12571 2.90511 4.03315 2.83023 3.96765C2.75536 3.90215 2.65753 3.86908 2.55828 3.87571C2.45902 3.88234 2.36646 3.92813 2.30096 4.00301C2.23547 4.07788 2.2024 4.17571 2.20903 4.27496L2.44103 7.75096C2.48353 8.39196 2.51803 8.90996 2.59903 9.31696C2.68353 9.73946 2.82653 10.0925 3.12253 10.369C3.41803 10.646 3.78003 10.7655 4.20753 10.821C4.61853 10.875 5.13753 10.875 5.78053 10.875H6.22003C6.86253 10.875 7.38203 10.875 7.79303 10.821C8.22003 10.7655 8.58203 10.646 8.87803 10.369C9.17353 10.0925 9.31653 9.73896 9.40103 9.31696C9.48203 8.91046 9.51603 8.39196 9.55903 7.75096L9.79103 4.27496C9.79766 4.17571 9.76459 4.07788 9.69909 4.00301C9.63359 3.92813 9.54103 3.88234 9.44178 3.87571C9.34252 3.86908 9.24469 3.90215 9.16982 3.96765C9.09494 4.03315 9.04916 4.12571 9.04253 4.22496L8.81253 7.67496C8.76753 8.34846 8.73553 8.81746 8.66553 9.16996C8.59703 9.51246 8.50203 9.69346 8.36553 9.82146C8.22853 9.94946 8.04153 10.0325 7.69553 10.0775C7.33903 10.124 6.86903 10.125 6.19353 10.125H5.80653C5.13153 10.125 4.66153 10.124 4.30453 10.0775C3.95853 10.0325 3.77153 9.94946 3.63453 9.82146C3.49803 9.69346 3.40303 9.51246 3.33453 9.17046C3.26453 8.81746 3.23253 8.34846 3.18753 7.67446L2.95753 4.22496Z" fill="white"/>
<path id="Vector_3" d="M4.71249 5.12699C4.81141 5.11708 4.91022 5.14685 4.9872 5.20976C5.06417 5.27268 5.11302 5.36358 5.12299 5.46249L5.37299 7.96249C5.38032 8.06003 5.34924 8.15658 5.28638 8.23153C5.22353 8.30648 5.13388 8.3539 5.03656 8.36369C4.93923 8.37347 4.84194 8.34484 4.76542 8.2839C4.68891 8.22296 4.63923 8.13454 4.62699 8.03749L4.37699 5.53749C4.36708 5.43857 4.39685 5.33977 4.45976 5.26279C4.52268 5.18581 4.61358 5.13697 4.71249 5.12699ZM7.28749 5.12699C7.38631 5.13697 7.47713 5.18575 7.54003 5.26261C7.60293 5.33948 7.63277 5.43815 7.62299 5.53699L7.37299 8.03699C7.36059 8.13385 7.3109 8.22206 7.23448 8.28285C7.15805 8.34365 7.06093 8.37223 6.96376 8.36252C6.86659 8.35282 6.77704 8.3056 6.71415 8.23089C6.65126 8.15619 6.61999 8.05989 6.62699 7.96249L6.87699 5.46249C6.88697 5.36368 6.93575 5.27285 7.01261 5.20995C7.08948 5.14706 7.18865 5.11722 7.28749 5.12699Z" fill="white"/>
</g>
</g>
</svg>
