<svg width="20" height="21" viewBox="0 0 20 21" fill="none" xmlns="http://www.w3.org/2000/svg">
<path d="M10 14.6641V9.66406" stroke="#4169E1" stroke-width="1.25" stroke-linecap="round"/>
<path d="M10.0003 6.32943C10.4606 6.32943 10.8337 6.70252 10.8337 7.16276C10.8337 7.623 10.4606 7.99609 10.0003 7.99609C9.54009 7.99609 9.16699 7.623 9.16699 7.16276C9.16699 6.70252 9.54009 6.32943 10.0003 6.32943Z" fill="#4169E1"/>
<path d="M1.66699 10.4974C1.66699 6.56906 1.66699 4.6049 2.88699 3.38406C4.10866 2.16406 6.07199 2.16406 10.0003 2.16406C13.9287 2.16406 15.8928 2.16406 17.1128 3.38406C18.3337 4.60573 18.3337 6.56906 18.3337 10.4974C18.3337 14.4257 18.3337 16.3899 17.1128 17.6099C15.8937 18.8307 13.9287 18.8307 10.0003 18.8307C6.07199 18.8307 4.10783 18.8307 2.88699 17.6099C1.66699 16.3907 1.66699 14.4257 1.66699 10.4974Z" stroke="#4169E1" stroke-width="1.25"/>
</svg>
