<svg width="24" height="25" viewBox="0 0 24 25" fill="none" xmlns="http://www.w3.org/2000/svg">
<path d="M20.501 6.50439H3.50098M18.834 9.00439L18.374 15.9044C18.197 18.5584 18.109 19.8854 17.244 20.6944C16.379 21.5044 15.048 21.5044 12.388 21.5044H11.614C8.95398 21.5044 7.62298 21.5044 6.75798 20.6944C5.89298 19.8854 5.80398 18.5584 5.62798 15.9044L5.16798 9.00439" stroke="#4169E1" stroke-width="1.5" stroke-linecap="round"/>
<path d="M6.50098 6.50439H6.61098C7.01342 6.49411 7.4034 6.36262 7.7299 6.12711C8.0564 5.8916 8.30423 5.56304 8.44098 5.18439L8.47498 5.08139L8.57198 4.79039C8.65498 4.54139 8.69698 4.41739 8.75198 4.31139C8.86018 4.10378 9.01549 3.92439 9.20545 3.78755C9.39542 3.65072 9.61478 3.56026 9.84598 3.52339C9.96298 3.50439 10.094 3.50439 10.356 3.50439H13.646C13.908 3.50439 14.039 3.50439 14.156 3.52339C14.3872 3.56026 14.6065 3.65072 14.7965 3.78755C14.9865 3.92439 15.1418 4.10378 15.25 4.31139C15.305 4.41739 15.347 4.54139 15.43 4.79039L15.527 5.08139C15.6537 5.50267 15.9158 5.8704 16.2727 6.12766C16.6295 6.38491 17.0612 6.51732 17.501 6.50439" stroke="#4169E1" stroke-width="1.5"/>
</svg>
