<svg width="28" height="28" viewBox="0 0 28 28" fill="none" xmlns="http://www.w3.org/2000/svg">
<path d="M9.15017 4.43559C11.5173 3.03442 12.7003 2.33325 14 2.33325C15.2997 2.33325 16.4827 3.03325 18.8498 4.43559L19.6502 4.90925C22.0173 6.31159 23.2003 7.01275 23.8502 8.16659C24.5 9.32159 24.5 10.7216 24.5 13.5263V14.4736C24.5 17.2771 24.5 18.6794 23.8502 19.8333C23.2003 20.9883 22.0173 21.6883 19.6502 23.0894L18.8498 23.5643C16.4827 24.9654 15.2997 25.6666 14 25.6666C12.7003 25.6666 11.5173 24.9666 9.15017 23.5643L8.34983 23.0894C5.98267 21.6894 4.79967 20.9871 4.14983 19.8333C3.5 18.6783 3.5 17.2783 3.5 14.4736V13.5263C3.5 10.7216 3.5 9.32042 4.14983 8.16659C4.79967 7.01159 5.98267 6.31159 8.34983 4.90925L9.15017 4.43559Z" stroke="#4169E1" stroke-width="1.25"/>
<path d="M14 17.4999C15.933 17.4999 17.5 15.9329 17.5 13.9999C17.5 12.0669 15.933 10.4999 14 10.4999C12.067 10.4999 10.5 12.0669 10.5 13.9999C10.5 15.9329 12.067 17.4999 14 17.4999Z" stroke="#4169E1" stroke-width="1.25"/>
</svg>
