<svg width="24" height="24" viewBox="0 0 24 24" fill="none" xmlns="http://www.w3.org/2000/svg">
<path d="M18.751 9.71V9.005C18.751 5.136 15.727 2 12.001 2C8.27504 2 5.25104 5.136 5.25104 9.005V9.71C5.25224 10.5516 5.01208 11.3758 4.55904 12.085L3.45104 13.81C2.44004 15.385 3.21204 17.526 4.97104 18.024C9.56714 19.327 14.4349 19.327 19.031 18.024C20.79 17.526 21.562 15.385 20.551 13.811L19.443 12.086C18.9896 11.3769 18.7491 10.5527 18.75 9.711L18.751 9.71Z" stroke="#4169E1" stroke-width="1.5"/>
<path d="M10.001 9H14.001L10.001 13H14.001" stroke="#4169E1" stroke-width="1.5" stroke-linecap="round" stroke-linejoin="round"/>
<path d="M7.50098 19C8.15598 20.748 9.92298 22 12.001 22C14.079 22 15.846 20.748 16.501 19" stroke="#4169E1" stroke-width="1.5" stroke-linecap="round"/>
</svg>
