<svg width="24" height="25" viewBox="0 0 24 25" fill="none" xmlns="http://www.w3.org/2000/svg">
<g id="solar:logout-2-linear">
<g id="Group">
<path id="Vector" d="M9.00195 7.6001C9.01395 5.4251 9.11095 4.2471 9.87895 3.4791C10.758 2.6001 12.172 2.6001 15 2.6001H16C18.829 2.6001 20.243 2.6001 21.122 3.4791C22 4.3571 22 5.7721 22 8.6001V16.6001C22 19.4281 22 20.8431 21.122 21.7211C20.242 22.6001 18.829 22.6001 16 22.6001H15C12.172 22.6001 10.758 22.6001 9.87895 21.7211C9.11095 20.9531 9.01395 19.7751 9.00195 17.6001" stroke="#4169E1" stroke-width="1.5" stroke-linecap="round"/>
<path id="Vector_2" d="M15 12.6001H2M2 12.6001L5.5 9.6001M2 12.6001L5.5 15.6001" stroke="#4169E1" stroke-width="1.5" stroke-linecap="round" stroke-linejoin="round"/>
</g>
</g>
</svg>
