<svg width="24" height="24" viewBox="0 0 24 24" fill="none" xmlns="http://www.w3.org/2000/svg">
<path d="M13 6.99927H3M10 11.9993H3M8 16.9993H3" stroke="#4169E1" stroke-width="1.5" stroke-linecap="round"/>
<path d="M11.3159 16.6914C11.2755 16.7812 11.2531 16.8781 11.2501 16.9766C11.2471 17.075 11.2635 17.1731 11.2985 17.2653C11.3334 17.3574 11.3861 17.4417 11.4536 17.5134C11.5211 17.5852 11.6021 17.6429 11.6919 17.6834C11.7817 17.7238 11.8786 17.7462 11.9771 17.7492C12.0756 17.7522 12.1737 17.7357 12.2658 17.7008C12.3579 17.6659 12.4422 17.6132 12.514 17.5457C12.5857 17.4782 12.6435 17.3972 12.6839 17.3074L11.3159 16.6914ZM16.4999 6.99938L17.1839 6.69138C17.1246 6.55959 17.0285 6.44773 16.9072 6.36925C16.7858 6.29077 16.6444 6.24902 16.4999 6.24902C16.3554 6.24902 16.214 6.29077 16.0926 6.36925C15.9713 6.44773 15.8752 6.55959 15.8159 6.69138L16.4999 6.99938ZM20.3159 17.3074C20.3976 17.4888 20.548 17.6303 20.734 17.7008C20.9201 17.7713 21.1265 17.7651 21.3079 17.6834C21.4893 17.6017 21.6308 17.4513 21.7014 17.2653C21.7719 17.0792 21.7656 16.8728 21.6839 16.6914L20.3159 17.3074ZM13.6359 12.6134C13.437 12.6134 13.2462 12.6924 13.1056 12.8331C12.9649 12.9737 12.8859 13.1645 12.8859 13.3634C12.8859 13.5623 12.9649 13.7531 13.1056 13.8937C13.2462 14.0344 13.437 14.1134 13.6359 14.1134V12.6134ZM12.6839 17.3074L17.1839 7.30738L15.8159 6.69138L11.3159 16.6914L12.6839 17.3074ZM21.6839 16.6914L20.0479 13.0554L18.6799 13.6704L20.3159 17.3074L21.6839 16.6914ZM20.0479 13.0554L17.1839 6.69138L15.8159 7.30738L18.6799 13.6704L20.0479 13.0554ZM19.3639 12.6134H13.6359V14.1134H19.3639V12.6134Z" fill="#4169E1"/>
</svg>
